<?xml version="1.0" encoding="UTF-8" standalone="no"?>
<svg
   xmlns:dc="http://purl.org/dc/elements/1.1/"
   xmlns:cc="http://creativecommons.org/ns#"
   xmlns:rdf="http://www.w3.org/1999/02/22-rdf-syntax-ns#"
   xmlns:svg="http://www.w3.org/2000/svg"
   xmlns="http://www.w3.org/2000/svg"
   viewBox="0 0 1000 666.66669"
   height="666.66669"
   width="1000"
   xml:space="preserve"
   id="svg2"
   version="1.1"><metadata
     id="metadata8"><rdf:RDF><cc:Work
         rdf:about=""><dc:format>image/svg+xml</dc:format><dc:type
           rdf:resource="http://purl.org/dc/dcmitype/StillImage" /></cc:Work></rdf:RDF></metadata><defs
     id="defs6"><clipPath
       id="clipPath18"
       clipPathUnits="userSpaceOnUse"><path
         id="path16"
         d="M 0,0 H 750 V 500 H 0 Z" /></clipPath><linearGradient
       id="linearGradient32"
       spreadMethod="pad"
       gradientTransform="matrix(0,-750,-750,0,375,594)"
       gradientUnits="userSpaceOnUse"
       y2="0"
       x2="1"
       y1="0"
       x1="0"><stop
         id="stop24"
         offset="0"
         style="stop-opacity:1;stop-color:#81a194" /><stop
         id="stop26"
         offset="0.150667"
         style="stop-opacity:1;stop-color:#81a194" /><stop
         id="stop28"
         offset="0.756"
         style="stop-opacity:1;stop-color:#fdc996" /><stop
         id="stop30"
         offset="1"
         style="stop-opacity:1;stop-color:#fdc996" /></linearGradient><clipPath
       id="clipPath42"
       clipPathUnits="userSpaceOnUse"><path
         id="path40"
         d="m 172.778,211.669 h -16.851 c 0,0 -26.044,-24.512 -42.897,-24.512 v 0 C 96.178,187.157 0,167.838 0,167.838 v 0 -88.861 l 750,-6.128 v 71.497 c -106.226,-7.149 -410.322,35.238 -410.322,35.238 v 0 c -22.981,-1.02 -48.516,11.747 -48.516,11.747 v 0 c -8.682,1.021 -22.982,5.107 -22.982,5.107 v 0 c -12.256,7.66 -26.556,24.513 -26.556,24.513 v 0 c -5.107,1.533 -14.299,1.021 -20.427,1.021 v 0 c -6.129,0 -20.842,3.485 -20.842,3.485 v 0 z" /></clipPath><linearGradient
       id="linearGradient52"
       spreadMethod="pad"
       gradientTransform="matrix(22.727524,-421.46472,-421.46472,-22.727524,365.6886,284.33478)"
       gradientUnits="userSpaceOnUse"
       y2="0"
       x2="1"
       y1="0"
       x1="0"><stop
         id="stop48"
         offset="0"
         style="stop-opacity:1;stop-color:#fbffd5" /><stop
         id="stop50"
         offset="1"
         style="stop-opacity:1;stop-color:#f8931e" /></linearGradient><clipPath
       id="clipPath62"
       clipPathUnits="userSpaceOnUse"><path
         id="path60"
         d="M 0,500 H 750 V 0 H 0 Z" /></clipPath><clipPath
       id="clipPath86"
       clipPathUnits="userSpaceOnUse"><path
         id="path84"
         d="M 592.1,204.173 C 522.376,203.298 436.559,151.939 291.4,119.461 v 0 C 216.609,102.732 750,59.294 750,59.294 v 0 106.316 c 0,0 -22.462,0.759 -118.25,32.689 v 0 c -12.227,4.072 -24.713,5.887 -37.756,5.887 v 0 c -0.629,0 -1.262,-0.004 -1.894,-0.013" /></clipPath><linearGradient
       id="linearGradient100"
       spreadMethod="pad"
       gradientTransform="matrix(146.51387,-245.87393,-245.87393,-146.51387,441.73199,267.04611)"
       gradientUnits="userSpaceOnUse"
       y2="0"
       x2="1"
       y1="0"
       x1="0"><stop
         id="stop92"
         offset="0"
         style="stop-opacity:1;stop-color:#fbffd5" /><stop
         id="stop94"
         offset="0.103764"
         style="stop-opacity:1;stop-color:#fbffd5" /><stop
         id="stop96"
         offset="0.28382906"
         style="stop-opacity:1;stop-color:#f8931e" /><stop
         id="stop98"
         offset="1"
         style="stop-opacity:1;stop-color:#f8931e" /></linearGradient><clipPath
       id="clipPath110"
       clipPathUnits="userSpaceOnUse"><path
         id="path108"
         d="m 592.1,204.173 c 3.634,-11.614 23.074,-55.927 109.835,-62.599 v 0 c 30.583,-2.356 32.336,-1.913 48.065,-0.182 v 0 24.218 c 0,0 -22.462,0.759 -118.25,32.689 v 0 c -12.227,4.072 -24.713,5.887 -37.756,5.887 v 0 c -0.629,0 -1.262,-0.004 -1.894,-0.013" /></clipPath><linearGradient
       id="linearGradient120"
       spreadMethod="pad"
       gradientTransform="matrix(43.033337,43.211208,43.211208,-43.033337,659.08453,160.76756)"
       gradientUnits="userSpaceOnUse"
       y2="0"
       x2="1"
       y1="0"
       x1="0"><stop
         id="stop116"
         offset="0"
         style="stop-opacity:1;stop-color:#cf6944" /><stop
         id="stop118"
         offset="1"
         style="stop-opacity:1;stop-color:#f8931e" /></linearGradient><clipPath
       id="clipPath130"
       clipPathUnits="userSpaceOnUse"><path
         id="path128"
         d="M 0,500 H 750 V 0 H 0 Z" /></clipPath><clipPath
       id="clipPath142"
       clipPathUnits="userSpaceOnUse"><path
         id="path140"
         d="M 56.443,209.058 C 33.333,197.667 0,177.751 0,177.751 v 0 V 0 h 750 v 106 c 0,0 -10.525,-5.358 -83.162,-11.046 v 0 c -53.589,-4.215 -129.987,-4.729 -233.691,6.179 v 0 C 200.547,125.61 103.22,206.808 62.199,209.299 v 0 c -1.13,0.069 -2.265,0.229 -3.325,0.229 v 0 c -0.876,0 -1.701,-0.109 -2.431,-0.47" /></clipPath><linearGradient
       id="linearGradient158"
       spreadMethod="pad"
       gradientTransform="matrix(254.08701,-406.59949,-406.59949,-254.08701,203.51974,327.40909)"
       gradientUnits="userSpaceOnUse"
       y2="0"
       x2="1"
       y1="0"
       x1="0"><stop
         id="stop148"
         offset="0"
         style="stop-opacity:1;stop-color:#fbffd5" /><stop
         id="stop150"
         offset="0.1404228"
         style="stop-opacity:1;stop-color:#f8931e" /><stop
         id="stop152"
         offset="0.698925"
         style="stop-opacity:1;stop-color:#f8931e" /><stop
         id="stop154"
         offset="0.978495"
         style="stop-opacity:1;stop-color:#cf6944" /><stop
         id="stop156"
         offset="1"
         style="stop-opacity:1;stop-color:#cf6944" /></linearGradient><clipPath
       id="clipPath168"
       clipPathUnits="userSpaceOnUse"><path
         id="path166"
         d="m 215.157,85.234 c 160.859,-45.185 404.227,0.126 451.681,9.72 v 0 c -53.589,-4.215 -129.987,-4.729 -233.691,6.179 v 0 C 200.547,125.61 103.22,206.808 62.199,209.299 v 0 C 59.63,198.23 51.477,131.218 215.157,85.234" /></clipPath><linearGradient
       id="linearGradient178"
       spreadMethod="pad"
       gradientTransform="matrix(605.57507,0,0,-605.57507,61.26302,137.40933)"
       gradientUnits="userSpaceOnUse"
       y2="0"
       x2="1"
       y1="0"
       x1="0"><stop
         id="stop174"
         offset="0"
         style="stop-opacity:1;stop-color:#cf6944" /><stop
         id="stop176"
         offset="1"
         style="stop-opacity:1;stop-color:#f8931e" /></linearGradient><clipPath
       id="clipPath188"
       clipPathUnits="userSpaceOnUse"><path
         id="path186"
         d="M 0,500 H 750 V 0 H 0 Z" /></clipPath><clipPath
       id="clipPath212"
       clipPathUnits="userSpaceOnUse"><path
         id="path210"
         d="M 59.7876,331.189 H 134.795 V 256.182 H 59.7876 Z" /></clipPath><clipPath
       id="clipPath228"
       clipPathUnits="userSpaceOnUse"><path
         id="path226"
         d="M 63.7876,327.189 H 130.795 V 260.182 H 63.7876 Z" /></clipPath><clipPath
       id="clipPath248"
       clipPathUnits="userSpaceOnUse"><path
         id="path246"
         d="M 311.469,307.514 H 521.001 V 287.498 H 311.469 Z" /></clipPath><clipPath
       id="clipPath272"
       clipPathUnits="userSpaceOnUse"><path
         id="path270"
         d="M 97.7886,247.87 H 240.667 V 229.667 H 97.7886 Z" /></clipPath><clipPath
       id="clipPath288"
       clipPathUnits="userSpaceOnUse"><path
         id="path286"
         d="M 503.75,247.532 H 617.999 V 232.857 H 503.75 Z" /></clipPath></defs><g
     transform="matrix(1.3333333,0,0,-1.3333333,0,666.66667)"
     id="g10"><g
       id="g12"><g
         clip-path="url(#clipPath18)"
         id="g14"><g
           id="g20"><g
             id="g22"><path
               id="path34"
               style="fill:url(#linearGradient32);stroke:none"
               d="M 0,0 H 750 V 500 H 0 Z" /></g></g></g></g><g
       id="g36"><g
         clip-path="url(#clipPath42)"
         id="g38"><g
           id="g44"><g
             id="g46"><path
               id="path54"
               style="fill:url(#linearGradient52);stroke:none"
               d="m 172.778,211.669 h -16.851 c 0,0 -26.044,-24.512 -42.897,-24.512 v 0 C 96.178,187.157 0,167.838 0,167.838 v 0 -88.861 l 750,-6.128 v 71.497 c -106.226,-7.149 -410.322,35.238 -410.322,35.238 v 0 c -22.981,-1.02 -48.516,11.747 -48.516,11.747 v 0 c -8.682,1.021 -22.982,5.107 -22.982,5.107 v 0 c -12.256,7.66 -26.556,24.513 -26.556,24.513 v 0 c -5.107,1.533 -14.299,1.021 -20.427,1.021 v 0 c -6.129,0 -20.842,3.485 -20.842,3.485 v 0 z" /></g></g></g></g><g
       id="g56"><g
         clip-path="url(#clipPath62)"
         id="g58"><g
           transform="translate(202.1598,220.0184)"
           id="g64"><path
             id="path66"
             style="fill:#ffbf82;fill-opacity:1;fill-rule:nonzero;stroke:none"
             d="M 0,0 C 0,0 2.676,-14.908 3.058,-16.055 3.44,-17.202 0,-24.465 0,-24.465 l -23.318,14.909 z" /></g><g
           transform="translate(172.7259,209.3152)"
           id="g68"><path
             id="path70"
             style="fill:#ffbf82;fill-opacity:1;fill-rule:nonzero;stroke:none"
             d="m 0,0 9.556,-7.645 -1.911,-2.294 2.676,-2.676 1.529,-5.733 c 0,0 -3.823,0.764 -4.969,1.911 -1.147,1.147 -5.734,5.351 -5.734,5.351 H -8.41 l -26.376,-8.791 17.967,20.642 10.703,-5.352 z" /></g><g
           transform="translate(139.087,182.1747)"
           id="g72"><path
             id="path74"
             style="fill:#ffbf82;fill-opacity:1;fill-rule:nonzero;stroke:none"
             d="M 0,0 23.7,5.352 38.608,3.058 48.929,-2.676 67.66,-3.058 85.626,-21.789 64.22,-21.024 53.134,-16.055 51.223,-19.495 86.391,-38.226 -16.055,0.765 Z" /></g><g
           transform="translate(241.6243,220.9511)"
           id="g76"><path
             id="path78"
             style="fill:#ffbf82;fill-opacity:1;fill-rule:nonzero;stroke:none"
             d="m 0,0 -2.768,-8.96 4.97,-6.881 -2.294,-4.205 5.352,-6.116 5.352,-2.676 h 8.027 l -6.498,4.587 -4.588,4.205 19.003,-4.468 z" /></g></g></g><g
       id="g80"><g
         clip-path="url(#clipPath86)"
         id="g82"><g
           id="g88"><g
             id="g90"><path
               id="path102"
               style="fill:url(#linearGradient100);stroke:none"
               d="M 592.1,204.173 C 522.376,203.298 436.559,151.939 291.4,119.461 v 0 C 216.609,102.732 750,59.294 750,59.294 v 0 106.316 c 0,0 -22.462,0.759 -118.25,32.689 v 0 c -12.227,4.072 -24.713,5.887 -37.756,5.887 v 0 c -0.629,0 -1.262,-0.004 -1.894,-0.013" /></g></g></g></g><g
       id="g104"><g
         clip-path="url(#clipPath110)"
         id="g106"><g
           id="g112"><g
             id="g114"><path
               id="path122"
               style="fill:url(#linearGradient120);stroke:none"
               d="m 592.1,204.173 c 3.634,-11.614 23.074,-55.927 109.835,-62.599 v 0 c 30.583,-2.356 32.336,-1.913 48.065,-0.182 v 0 24.218 c 0,0 -22.462,0.759 -118.25,32.689 v 0 c -12.227,4.072 -24.713,5.887 -37.756,5.887 v 0 c -0.629,0 -1.262,-0.004 -1.894,-0.013" /></g></g></g></g><g
       id="g124"><g
         clip-path="url(#clipPath130)"
         id="g126"><g
           transform="translate(35.24,225.32)"
           id="g132"><path
             id="path134"
             style="fill:#cf6944;fill-opacity:1;fill-rule:nonzero;stroke:none"
             d="m 0,0 c 0,0 2.945,-19.056 2.425,-33.261 l 6.757,1.212 c 0,0 -4.158,26.679 -6.237,31.876 0,0 4.158,0.693 8.662,-2.079 l -1.386,2.598 c 0,0 4.677,-0.346 8.142,-5.716 l -0.52,3.118 c 0,0 5.024,-1.386 9.182,-8.662 0,0 0,7.276 -4.331,12.473 -4.331,5.197 -18.71,2.079 -19.922,1.213 0,0 1.732,3.465 7.276,5.37 L 6.41,8.662 c 0,0 2.079,4.331 12.473,3.118 l -2.945,1.906 c 0,0 9.181,2.771 15.418,-3.638 0,0 -5.89,9.874 -15.418,12.126 C 6.41,24.426 0.866,6.756 0.866,6.756 c 0,0 -6.929,10.221 -13.339,10.568 -6.41,0.346 -12.473,-10.221 -12.473,-10.221 0,0 3.984,2.945 7.449,3.464 l -1.039,-3.118 c 0,0 3.984,2.772 9.354,1.906 L -12.3,7.276 c 0,0 5.544,0.693 10.394,-5.024 0,0 -10.914,-1.213 -14.551,-6.236 -3.638,-5.024 0.173,-11.607 0.173,-11.607 0,0 1.039,5.717 2.425,7.622 l 0.347,-4.504 c 0,0 1.905,5.197 5.023,7.276 l 0.52,-3.811 c 0,0 3.985,8.142 7.969,9.008" /></g></g></g><g
       id="g136"><g
         clip-path="url(#clipPath142)"
         id="g138"><g
           id="g144"><g
             id="g146"><path
               id="path160"
               style="fill:url(#linearGradient158);stroke:none"
               d="M 56.443,209.058 C 33.333,197.667 0,177.751 0,177.751 v 0 V 0 h 750 v 106 c 0,0 -10.525,-5.358 -83.162,-11.046 v 0 c -53.589,-4.215 -129.987,-4.729 -233.691,6.179 v 0 C 200.547,125.61 103.22,206.808 62.199,209.299 v 0 c -1.13,0.069 -2.265,0.229 -3.325,0.229 v 0 c -0.876,0 -1.701,-0.109 -2.431,-0.47" /></g></g></g></g><g
       id="g162"><g
         clip-path="url(#clipPath168)"
         id="g164"><g
           id="g170"><g
             id="g172"><path
               id="path180"
               style="fill:url(#linearGradient178);stroke:none"
               d="m 215.157,85.234 c 160.859,-45.185 404.227,0.126 451.681,9.72 v 0 c -53.589,-4.215 -129.987,-4.729 -233.691,6.179 v 0 C 200.547,125.61 103.22,206.808 62.199,209.299 v 0 C 59.63,198.23 51.477,131.218 215.157,85.234" /></g></g></g></g><g
       id="g182"><g
         clip-path="url(#clipPath188)"
         id="g184"><g
           transform="translate(463.2839,128.4078)"
           id="g190"><path
             id="path192"
             style="fill:#c15b3b;fill-opacity:1;fill-rule:nonzero;stroke:none"
             d="m 0,0 c -0.465,1.084 -2.169,2.788 -4.957,2.478 -2.788,-0.309 -3.407,1.394 -5.421,1.704 -2.014,0.31 -3.253,0.775 -3.718,0.775 -0.464,0 -2.788,1.549 -3.252,0.619 -0.465,-0.929 1.394,-1.549 0.464,-3.717 -0.929,-2.169 -4.647,-4.492 -5.421,-9.914 -0.775,-5.421 -8.365,-7.745 -12.857,-5.886 -4.492,1.859 -5.266,5.731 -8.209,5.731 -2.943,0 -7.126,8.984 -13.167,8.055 -6.041,-0.929 -5.886,-5.112 -9.448,-7.59 -3.563,-2.478 -6.196,-4.337 -6.196,-4.337 -0.408,0.272 -2.609,-1.847 -3.453,-3.416 -1.445,-0.41 -4.859,-1.694 -6.306,-4.948 -1.858,-4.183 -7.59,-5.887 -9.139,-5.732 -1.549,0.155 0.465,-4.801 4.647,-2.788 1.864,0.897 3.91,1.886 5.608,2.708 0.426,-1.23 1.402,-2.35 2.993,-3.178 0.003,-1.218 -0.343,-2.77 -1.563,-4.488 -2.868,-4.043 -2.347,-7.563 -1.173,-11.345 1.173,-3.781 0.913,-10.431 1.434,-11.866 0.522,-1.434 1.043,-3.129 0.913,-3.52 -0.131,-0.391 0.261,-1.826 1.304,-1.956 1.043,-0.131 4.564,-0.131 4.564,-0.131 0,0 0.521,1.956 -1.174,2.869 -1.695,0.913 -1.695,1.043 -1.825,2.608 -0.131,1.565 -2.087,9.388 -1.826,10.823 0.261,1.434 1.434,2.216 3.651,5.737 0,0 -0.782,-4.303 -1.434,-5.607 -0.652,-1.304 0.782,-3.781 1.956,-6.259 1.173,-2.477 3.781,-6.259 3.781,-7.823 0,-1.565 2.086,-2.217 2.086,-2.217 0,0 2.999,-0.131 3.782,-0.261 0.782,-0.13 2.608,0.13 1.956,0.652 -0.652,0.522 -0.783,1.956 -2.347,2.738 -1.565,0.783 -2.608,1.956 -2.608,2.478 0,0.521 -4.173,9.127 -4.173,10.171 0,1.043 2.738,4.824 4.955,6.65 2.099,1.728 5.596,5.792 6.294,8.212 3.505,-0.156 6.975,-0.236 9.862,-0.246 -0.16,-1.967 -0.318,-4.608 -0.248,-6.793 0.131,-4.042 -2.999,-10.301 -2.347,-14.213 0.652,-3.912 -0.13,-6.259 1.434,-7.302 1.565,-1.043 3.652,-1.043 3.912,-0.521 0.261,0.521 -1.173,5.085 -1.173,7.302 0,2.216 -0.913,5.215 0.652,9.388 1.565,4.173 1.956,8.997 1.956,10.562 0,0.446 -0.075,1.072 -0.181,1.739 0.193,0.018 0.385,0.037 0.576,0.057 1.491,-2.713 3.854,-6.214 7.168,-8.837 6.258,-4.955 4.563,-11.866 4.172,-12.779 -0.391,-0.913 -1.434,-7.172 -0.652,-8.084 0.783,-0.913 1.304,-1.826 3.782,-1.956 2.477,-0.131 1.564,1.825 0.782,4.042 -0.782,2.217 -0.13,15.126 -0.652,16.56 -0.522,1.434 -4.955,4.303 -5.998,6.52 -0.563,1.195 -1.166,3.565 -2.05,5.782 3.443,0.935 5.936,2.059 6.685,2.559 1.394,0.929 11.307,2.323 14.251,6.35 2.943,4.028 3.252,11.773 4.027,14.251 0.774,2.478 3.408,4.337 4.492,4.337 1.084,0 2.168,0 3.717,0.155 1.549,0.155 2.324,-0.62 3.718,-0.929 C 0,-4.337 0.929,-3.563 0.929,-2.323 0.929,-1.084 0.465,-1.084 0,0" /></g><g
           transform="translate(519.6165,157.4752)"
           id="g194"><path
             id="path196"
             style="fill:#cf6944;fill-opacity:1;fill-rule:nonzero;stroke:none"
             d="m 0,0 c 0,0 4.343,-66.929 3.703,-84.414 l 9.604,1.338 c 0,0 -7.123,76.466 -9.682,82.863 0,0 5.118,0.853 10.662,-2.559 l -1.706,3.198 c 0,0 5.757,-0.426 10.022,-7.036 l -0.64,3.838 c 0,0 6.184,-1.706 11.302,-10.662 0,0 0,8.956 -5.331,15.353 -5.331,6.397 -23.03,2.559 -24.522,1.493 0,0 2.132,4.265 8.956,6.61 l -4.478,0.64 c 0,0 2.559,5.331 15.353,3.838 l -3.625,2.346 c 0,0 11.301,3.411 18.978,-4.478 0,0 -7.25,12.154 -18.978,14.926 C 7.89,30.066 1.066,8.316 1.066,8.316 c 0,0 -8.529,12.581 -16.419,13.008 -7.89,0.426 -15.353,-12.581 -15.353,-12.581 0,0 4.904,3.625 9.169,4.264 l -1.279,-3.838 c 0,0 4.904,3.412 11.514,2.346 L -15.14,8.956 c 0,0 6.824,0.853 12.794,-6.184 0,0 -13.433,-1.493 -17.911,-7.676 -4.478,-6.184 0.213,-14.287 0.213,-14.287 0,0 1.279,7.037 2.985,9.382 l 0.427,-5.544 c 0,0 2.345,6.397 6.183,8.956 l 0.64,-4.691 c 0,0 4.905,10.022 9.809,11.088" /></g><g
           transform="translate(528.4801,92.5565)"
           id="g198"><path
             id="path200"
             style="fill:#cf6944;fill-opacity:1;fill-rule:nonzero;stroke:none"
             d="m 0,0 c 0,0 4.778,-1.72 7.645,-8.983 0,0 -0.382,8.792 -4.778,14.717 0,0 5.352,-3.058 6.498,-9.939 l 0.765,15.291 c 0,0 3.822,-8.028 2.102,-16.055 0,0 8.601,11.659 14.144,12.805 0,0 -8.41,-9.556 -11.277,-15.863 0,0 4.97,4.778 14.144,5.925 0,0 -10.895,-5.925 -11.85,-9.366 0,0 6.498,2.103 12.041,1.338 0,0 -10.512,-3.822 -12.997,-6.881 L 4.492,-18.253 c 0,0 -2.198,6.594 -5.639,8.697 0,0 5.161,-1.147 6.308,-3.441 l 0.382,-0.764 C 5.543,-13.761 1.338,-2.294 0,0" /></g><g
           transform="translate(675.4161,137.8194)"
           id="g202"><path
             id="path204"
             style="fill:#cf6944;fill-opacity:1;fill-rule:nonzero;stroke:none"
             d="m 0,0 c 0,0 -2.294,-12.232 1.147,-17.584 3.44,-5.352 14.143,-4.205 15.29,-5.352 1.147,-1.146 0.765,-20.259 0.765,-20.259 h 9.174 l 1.147,32.492 c 0,0 8.409,1.147 11.85,4.587 3.44,3.44 8.027,20.26 4.587,21.024 -3.441,0.765 -6.116,-15.673 -8.792,-16.819 -2.676,-1.147 -9.557,-0.765 -9.557,-0.765 0,0 3.441,33.639 -0.764,34.404 -4.205,0.764 -7.263,-48.547 -7.263,-48.547 0,0 -10.703,-1.147 -11.85,4.204 C 4.587,-7.263 4.587,-1.529 3.058,0.382 1.529,2.294 0,0 0,0" /></g><g
           id="g206"><g
             id="g208" /><g
             id="g220"><g
               style="opacity:0.58999598"
               id="g218"
               clip-path="url(#clipPath212)"><g
                 id="g216"
                 transform="translate(134.7951,293.6853)"><path
                   id="path214"
                   style="fill:#d9e0c8;fill-opacity:1;fill-rule:nonzero;stroke:none"
                   d="m 0,0 c 0,-20.713 -16.791,-37.504 -37.504,-37.504 -20.712,0 -37.503,16.791 -37.503,37.504 0,20.713 16.791,37.504 37.503,37.504 C -16.791,37.504 0,20.713 0,0" /></g></g></g></g><g
           id="g222"><g
             id="g224" /><g
             id="g236"><g
               style="opacity:0.58999598"
               id="g234"
               clip-path="url(#clipPath228)"><g
                 id="g232"
                 transform="translate(130.7951,293.6853)"><path
                   id="path230"
                   style="fill:#d9e0c8;fill-opacity:1;fill-rule:nonzero;stroke:none"
                   d="m 0,0 c 0,-18.504 -15,-33.504 -33.504,-33.504 -18.503,0 -33.503,15 -33.503,33.504 0,18.504 15,33.504 33.503,33.504 C -15,33.504 0,18.504 0,0" /></g></g></g></g><g
           transform="translate(565.5809,329.4056)"
           id="g238"><path
             id="path240"
             style="fill:#ded9b9;fill-opacity:1;fill-rule:nonzero;stroke:none"
             d="m 0,0 h 184.419 v 30.261 c 0,0 -19.667,0.667 -30.667,-13.333 0,0 -11,5.333 -23,2.333 -12,-3 -16,-7.333 -16,-7.333 0,0 -9.666,5.666 -20,1.666 -10.333,-4 -3.666,-6.666 -18,-6.666 -14.333,0 -17.333,0 -22,-1 -4.666,-1 -66,-4.334 -66,-4.334 0,0 -11.504,-0.855 11.248,-1.594" /></g><g
           id="g242"><g
             id="g244" /><g
             id="g256"><g
               style="opacity:0.41000402"
               id="g254"
               clip-path="url(#clipPath248)"><g
                 id="g252"
                 transform="translate(352.3347,287.6643)"><path
                   id="path250"
                   style="fill:#f7daac;fill-opacity:1;fill-rule:nonzero;stroke:none"
                   d="m 0,0 h 168.667 c 0,0 -20,4 -33.334,4 -13.333,0 -18,8.667 -28.666,8.667 -10.667,0 -2,-8.667 -14,-2 -12,6.666 -24.667,10.666 -34,8.666 -9.334,-2 -6,-12 -14,-10.666 -8,1.333 -20.667,10 -25.334,6 -4.666,-4 -4.666,-9.334 -12,-7.334 -7.333,2 -17.333,0 -18.666,-2 C -12.667,3.333 -46.667,2 -40,0.667 -33.333,-0.667 0,0 0,0" /></g></g></g></g><g
           transform="translate(0,371.6667)"
           id="g258"><path
             id="path260"
             style="fill:#ded9b9;fill-opacity:1;fill-rule:nonzero;stroke:none"
             d="m 0,0 h 199.333 c 0,0 -12.666,5.333 -28,4.667 C 156,4 150.667,13.333 141.667,15.333 c -9,2 -15.667,-3 -15.667,-3 0,0 -16.333,14 -27,15.334 C 88.333,29 82,23.333 82,23.333 82,23.333 70.333,37.333 48.333,41 26.333,44.667 12,24.667 12,24.667 12,24.667 1.333,22.667 0,20 0,20 -0.5,-0.5 0,0" /></g><g
           transform="translate(406,448)"
           id="g262"><path
             id="path264"
             style="fill:#ded9b9;fill-opacity:1;fill-rule:nonzero;stroke:none"
             d="m 0,0 h 297 c 0,0 -38,10 -62,10 -24,0 -20,14 -40,14 -20,0 -6.5,-9 -33,3.5 C 135.5,40 122,29 112.5,23.5 103,18 82,32.5 65,28 48,23.5 50,14.5 38,14.5 26,14.5 16.5,18 10,13.5 3.5,9 8,10 -14.5,7 -37,4 -48.5,2 -48.5,2 c 0,0 1,-4 48.5,-2" /></g><g
           id="g266"><g
             id="g268" /><g
             id="g280"><g
               style="opacity:0.41000402"
               id="g278"
               clip-path="url(#clipPath272)"><g
                 id="g276"
                 transform="translate(112.6667,229.6667)"><path
                   id="path274"
                   style="fill:#f7daac;fill-opacity:1;fill-rule:nonzero;stroke:none"
                   d="m 0,0 h 128 c 0,0 -13,3 -23.333,4.333 -10.334,1.334 -12.667,9.334 -19,9 C 79.333,13 79.667,11.667 72,16 64.333,20.333 57.667,17.333 56,15 54.333,12.667 45.333,16.333 39.333,15 33.333,13.667 37,7.333 29,8.667 21,10 17,9.667 13.333,7.667 9.667,5.667 0.667,3.667 -7,3 -14.667,2.333 -22.667,0 0,0" /></g></g></g></g><g
           id="g282"><g
             id="g284" /><g
             id="g296"><g
               style="opacity:0.41000402"
               id="g294"
               clip-path="url(#clipPath288)"><g
                 id="g292"
                 transform="translate(518.499,232.9973)"><path
                   id="path290"
                   style="fill:#f7daac;fill-opacity:1;fill-rule:nonzero;stroke:none"
                   d="M 0,0 H 99.5 C 99.5,0 89,1 74.5,5.5 60,10 57.5,15 53.5,14.5 49.5,14 45,9 41.5,10.5 38,12 31,12 27,10 23,8 13.5,6 8.5,7 c -5,1 -6,2 -8,-0.5 -2,-2.5 -13,-6 -15,-6 -2,0 8.5,-1 14.5,-0.5" /></g></g></g></g><g
           transform="translate(162.8126,440.8884)"
           id="g298"><path
             id="path300"
             style="fill:#d9e0c8;fill-opacity:1;fill-rule:nonzero;stroke:none"
             d="M 0,0 C -0.115,0.681 0.344,1.326 1.024,1.441 1.705,1.556 2.35,1.097 2.465,0.416 2.58,-0.264 2.121,-0.909 1.441,-1.024 0.76,-1.139 0.115,-0.681 0,0" /></g><g
           transform="translate(143.5371,469.4525)"
           id="g302"><path
             id="path304"
             style="fill:#d9e0c8;fill-opacity:1;fill-rule:nonzero;stroke:none"
             d="M 0,0 C -0.161,0.953 0.481,1.856 1.434,2.017 2.387,2.178 3.29,1.536 3.451,0.583 3.612,-0.37 2.97,-1.273 2.017,-1.434 1.064,-1.595 0.161,-0.953 0,0" /></g><g
           transform="translate(133.4012,433.3862)"
           id="g306"><path
             id="path308"
             style="fill:#d9e0c8;fill-opacity:1;fill-rule:nonzero;stroke:none"
             d="M 0,0 C -0.092,0.545 0.275,1.061 0.82,1.153 1.364,1.245 1.88,0.878 1.972,0.333 2.064,-0.212 1.697,-0.728 1.153,-0.82 0.608,-0.911 0.092,-0.545 0,0" /></g><g
           transform="translate(113.5915,452.3524)"
           id="g310"><path
             id="path312"
             style="fill:#d9e0c8;fill-opacity:1;fill-rule:nonzero;stroke:none"
             d="M 0,0 C -0.092,0.545 0.275,1.061 0.82,1.153 1.364,1.245 1.88,0.878 1.972,0.333 2.064,-0.212 1.697,-0.728 1.153,-0.82 0.608,-0.911 0.092,-0.545 0,0" /></g><g
           transform="translate(180.2491,484.019)"
           id="g314"><path
             id="path316"
             style="fill:#d9e0c8;fill-opacity:1;fill-rule:nonzero;stroke:none"
             d="M 0,0 C -0.092,0.545 0.275,1.061 0.82,1.153 1.364,1.245 1.88,0.878 1.972,0.333 2.064,-0.212 1.697,-0.728 1.153,-0.82 0.608,-0.911 0.092,-0.545 0,0" /></g><g
           transform="translate(136.7348,450.4292)"
           id="g318"><path
             id="path320"
             style="fill:#d9e0c8;fill-opacity:1;fill-rule:nonzero;stroke:none"
             d="M 0,0 C -0.092,0.545 0.275,1.061 0.82,1.153 1.364,1.245 1.88,0.878 1.972,0.333 2.064,-0.212 1.697,-0.728 1.153,-0.82 0.608,-0.911 0.092,-0.545 0,0" /></g><g
           transform="translate(123.7135,475.7393)"
           id="g322"><path
             id="path324"
             style="fill:#d9e0c8;fill-opacity:1;fill-rule:nonzero;stroke:none"
             d="M 0,0 C -0.092,0.545 0.275,1.061 0.82,1.153 1.364,1.245 1.88,0.878 1.972,0.333 2.064,-0.212 1.697,-0.728 1.153,-0.82 0.608,-0.911 0.092,-0.545 0,0" /></g><g
           transform="translate(177.8379,458.5113)"
           id="g326"><path
             id="path328"
             style="fill:#d9e0c8;fill-opacity:1;fill-rule:nonzero;stroke:none"
             d="M 0,0 C -0.092,0.545 0.275,1.061 0.82,1.153 1.364,1.245 1.88,0.878 1.972,0.333 2.064,-0.212 1.697,-0.728 1.153,-0.82 0.608,-0.911 0.092,-0.545 0,0" /></g><g
           transform="translate(56.7938,432.1122)"
           id="g330"><path
             id="path332"
             style="fill:#d9e0c8;fill-opacity:1;fill-rule:nonzero;stroke:none"
             d="M 0,0 C -0.115,0.681 0.344,1.326 1.024,1.441 1.705,1.556 2.35,1.097 2.465,0.416 2.58,-0.264 2.121,-0.909 1.441,-1.024 0.76,-1.139 0.115,-0.681 0,0" /></g><g
           transform="translate(37.5184,460.6763)"
           id="g334"><path
             id="path336"
             style="fill:#d9e0c8;fill-opacity:1;fill-rule:nonzero;stroke:none"
             d="M 0,0 C -0.161,0.953 0.481,1.856 1.434,2.017 2.387,2.178 3.29,1.536 3.451,0.583 3.612,-0.37 2.97,-1.273 2.017,-1.434 1.064,-1.595 0.161,-0.953 0,0" /></g><g
           transform="translate(27.3824,424.61)"
           id="g338"><path
             id="path340"
             style="fill:#d9e0c8;fill-opacity:1;fill-rule:nonzero;stroke:none"
             d="M 0,0 C -0.092,0.545 0.275,1.061 0.82,1.153 1.364,1.245 1.88,0.878 1.972,0.333 2.064,-0.212 1.697,-0.728 1.153,-0.82 0.608,-0.911 0.092,-0.545 0,0" /></g><g
           transform="translate(7.5727,443.5762)"
           id="g342"><path
             id="path344"
             style="fill:#d9e0c8;fill-opacity:1;fill-rule:nonzero;stroke:none"
             d="M 0,0 C -0.092,0.545 0.275,1.061 0.82,1.153 1.364,1.245 1.88,0.878 1.972,0.333 2.064,-0.212 1.697,-0.728 1.153,-0.82 0.608,-0.911 0.092,-0.545 0,0" /></g><g
           transform="translate(74.2304,475.2427)"
           id="g346"><path
             id="path348"
             style="fill:#d9e0c8;fill-opacity:1;fill-rule:nonzero;stroke:none"
             d="M 0,0 C -0.092,0.545 0.275,1.061 0.82,1.153 1.364,1.245 1.88,0.878 1.972,0.333 2.064,-0.212 1.697,-0.728 1.153,-0.82 0.608,-0.911 0.092,-0.545 0,0" /></g><g
           transform="translate(30.716,441.653)"
           id="g350"><path
             id="path352"
             style="fill:#d9e0c8;fill-opacity:1;fill-rule:nonzero;stroke:none"
             d="M 0,0 C -0.092,0.545 0.275,1.061 0.82,1.153 1.364,1.245 1.88,0.878 1.972,0.333 2.064,-0.212 1.697,-0.728 1.153,-0.82 0.608,-0.911 0.092,-0.545 0,0" /></g><g
           transform="translate(17.6947,466.9631)"
           id="g354"><path
             id="path356"
             style="fill:#d9e0c8;fill-opacity:1;fill-rule:nonzero;stroke:none"
             d="M 0,0 C -0.092,0.545 0.275,1.061 0.82,1.153 1.364,1.245 1.88,0.878 1.972,0.333 2.064,-0.212 1.697,-0.728 1.153,-0.82 0.608,-0.911 0.092,-0.545 0,0" /></g><g
           transform="translate(71.8191,449.7351)"
           id="g358"><path
             id="path360"
             style="fill:#d9e0c8;fill-opacity:1;fill-rule:nonzero;stroke:none"
             d="M 0,0 C -0.092,0.545 0.275,1.061 0.82,1.153 1.364,1.245 1.88,0.878 1.972,0.333 2.064,-0.212 1.697,-0.728 1.153,-0.82 0.608,-0.911 0.092,-0.545 0,0" /></g><g
           transform="translate(110.9182,414.8841)"
           id="g362"><path
             id="path364"
             style="fill:#d9e0c8;fill-opacity:1;fill-rule:nonzero;stroke:none"
             d="M 0,0 C -0.115,0.681 0.344,1.326 1.024,1.441 1.705,1.556 2.35,1.097 2.465,0.416 2.58,-0.264 2.121,-0.909 1.441,-1.024 0.76,-1.139 0.115,-0.681 0,0" /></g><g
           transform="translate(91.6427,443.4483)"
           id="g366"><path
             id="path368"
             style="fill:#d9e0c8;fill-opacity:1;fill-rule:nonzero;stroke:none"
             d="M 0,0 C -0.161,0.953 0.481,1.856 1.434,2.017 2.387,2.178 3.29,1.536 3.451,0.583 3.612,-0.37 2.97,-1.273 2.017,-1.434 1.064,-1.595 0.161,-0.953 0,0" /></g><g
           transform="translate(81.5068,407.382)"
           id="g370"><path
             id="path372"
             style="fill:#d9e0c8;fill-opacity:1;fill-rule:nonzero;stroke:none"
             d="M 0,0 C -0.092,0.545 0.275,1.061 0.82,1.153 1.364,1.245 1.88,0.878 1.972,0.333 2.064,-0.212 1.697,-0.728 1.153,-0.82 0.608,-0.911 0.092,-0.545 0,0" /></g><g
           transform="translate(61.6971,426.3481)"
           id="g374"><path
             id="path376"
             style="fill:#d9e0c8;fill-opacity:1;fill-rule:nonzero;stroke:none"
             d="M 0,0 C -0.092,0.545 0.275,1.061 0.82,1.153 1.364,1.245 1.88,0.878 1.972,0.333 2.064,-0.212 1.697,-0.728 1.153,-0.82 0.608,-0.911 0.092,-0.545 0,0" /></g><g
           transform="translate(128.3547,458.0147)"
           id="g378"><path
             id="path380"
             style="fill:#d9e0c8;fill-opacity:1;fill-rule:nonzero;stroke:none"
             d="M 0,0 C -0.092,0.545 0.275,1.061 0.82,1.153 1.364,1.245 1.88,0.878 1.972,0.333 2.064,-0.212 1.697,-0.728 1.153,-0.82 0.608,-0.911 0.092,-0.545 0,0" /></g><g
           transform="translate(84.8404,424.425)"
           id="g382"><path
             id="path384"
             style="fill:#d9e0c8;fill-opacity:1;fill-rule:nonzero;stroke:none"
             d="M 0,0 C -0.092,0.545 0.275,1.061 0.82,1.153 1.364,1.245 1.88,0.878 1.972,0.333 2.064,-0.212 1.697,-0.728 1.153,-0.82 0.608,-0.911 0.092,-0.545 0,0" /></g><g
           transform="translate(71.8191,449.7351)"
           id="g386"><path
             id="path388"
             style="fill:#d9e0c8;fill-opacity:1;fill-rule:nonzero;stroke:none"
             d="M 0,0 C -0.092,0.545 0.275,1.061 0.82,1.153 1.364,1.245 1.88,0.878 1.972,0.333 2.064,-0.212 1.697,-0.728 1.153,-0.82 0.608,-0.911 0.092,-0.545 0,0" /></g><g
           transform="translate(125.9435,432.5071)"
           id="g390"><path
             id="path392"
             style="fill:#d9e0c8;fill-opacity:1;fill-rule:nonzero;stroke:none"
             d="M 0,0 C -0.092,0.545 0.275,1.061 0.82,1.153 1.364,1.245 1.88,0.878 1.972,0.333 2.064,-0.212 1.697,-0.728 1.153,-0.82 0.608,-0.911 0.092,-0.545 0,0" /></g><g
           transform="translate(165.0425,397.6561)"
           id="g394"><path
             id="path396"
             style="fill:#d9e0c8;fill-opacity:1;fill-rule:nonzero;stroke:none"
             d="M 0,0 C -0.115,0.681 0.344,1.326 1.024,1.441 1.705,1.556 2.35,1.097 2.465,0.416 2.58,-0.264 2.121,-0.909 1.441,-1.024 0.76,-1.139 0.115,-0.681 0,0" /></g><g
           transform="translate(145.7671,426.2202)"
           id="g398"><path
             id="path400"
             style="fill:#d9e0c8;fill-opacity:1;fill-rule:nonzero;stroke:none"
             d="M 0,0 C -0.161,0.953 0.481,1.856 1.434,2.017 2.387,2.178 3.29,1.536 3.451,0.583 3.612,-0.37 2.97,-1.273 2.017,-1.434 1.064,-1.595 0.161,-0.953 0,0" /></g><g
           transform="translate(135.6311,390.1539)"
           id="g402"><path
             id="path404"
             style="fill:#d9e0c8;fill-opacity:1;fill-rule:nonzero;stroke:none"
             d="M 0,0 C -0.092,0.545 0.275,1.061 0.82,1.153 1.364,1.245 1.88,0.878 1.972,0.333 2.064,-0.212 1.697,-0.728 1.153,-0.82 0.608,-0.911 0.092,-0.545 0,0" /></g><g
           transform="translate(115.8214,409.1201)"
           id="g406"><path
             id="path408"
             style="fill:#d9e0c8;fill-opacity:1;fill-rule:nonzero;stroke:none"
             d="M 0,0 C -0.092,0.545 0.275,1.061 0.82,1.153 1.364,1.245 1.88,0.878 1.972,0.333 2.064,-0.212 1.697,-0.728 1.153,-0.82 0.608,-0.911 0.092,-0.545 0,0" /></g><g
           transform="translate(182.4791,440.7867)"
           id="g410"><path
             id="path412"
             style="fill:#d9e0c8;fill-opacity:1;fill-rule:nonzero;stroke:none"
             d="M 0,0 C -0.092,0.545 0.275,1.061 0.82,1.153 1.364,1.245 1.88,0.878 1.972,0.333 2.064,-0.212 1.697,-0.728 1.153,-0.82 0.608,-0.911 0.092,-0.545 0,0" /></g><g
           transform="translate(138.9648,407.197)"
           id="g414"><path
             id="path416"
             style="fill:#d9e0c8;fill-opacity:1;fill-rule:nonzero;stroke:none"
             d="M 0,0 C -0.092,0.545 0.275,1.061 0.82,1.153 1.364,1.245 1.88,0.878 1.972,0.333 2.064,-0.212 1.697,-0.728 1.153,-0.82 0.608,-0.911 0.092,-0.545 0,0" /></g><g
           transform="translate(125.9435,432.5071)"
           id="g418"><path
             id="path420"
             style="fill:#d9e0c8;fill-opacity:1;fill-rule:nonzero;stroke:none"
             d="M 0,0 C -0.092,0.545 0.275,1.061 0.82,1.153 1.364,1.245 1.88,0.878 1.972,0.333 2.064,-0.212 1.697,-0.728 1.153,-0.82 0.608,-0.911 0.092,-0.545 0,0" /></g><g
           transform="translate(180.0678,415.2791)"
           id="g422"><path
             id="path424"
             style="fill:#d9e0c8;fill-opacity:1;fill-rule:nonzero;stroke:none"
             d="M 0,0 C -0.092,0.545 0.275,1.061 0.82,1.153 1.364,1.245 1.88,0.878 1.972,0.333 2.064,-0.212 1.697,-0.728 1.153,-0.82 0.608,-0.911 0.092,-0.545 0,0" /></g><g
           transform="translate(219.1669,380.4281)"
           id="g426"><path
             id="path428"
             style="fill:#d9e0c8;fill-opacity:1;fill-rule:nonzero;stroke:none"
             d="M 0,0 C -0.115,0.681 0.344,1.326 1.024,1.441 1.705,1.556 2.35,1.097 2.465,0.416 2.58,-0.264 2.121,-0.909 1.441,-1.024 0.76,-1.139 0.115,-0.681 0,0" /></g><g
           transform="translate(199.8914,408.9922)"
           id="g430"><path
             id="path432"
             style="fill:#d9e0c8;fill-opacity:1;fill-rule:nonzero;stroke:none"
             d="M 0,0 C -0.161,0.953 0.481,1.856 1.434,2.017 2.387,2.178 3.29,1.536 3.451,0.583 3.612,-0.37 2.97,-1.273 2.017,-1.434 1.064,-1.595 0.161,-0.953 0,0" /></g><g
           transform="translate(189.7555,372.9259)"
           id="g434"><path
             id="path436"
             style="fill:#d9e0c8;fill-opacity:1;fill-rule:nonzero;stroke:none"
             d="M 0,0 C -0.092,0.545 0.275,1.061 0.82,1.153 1.364,1.245 1.88,0.878 1.972,0.333 2.064,-0.212 1.697,-0.728 1.153,-0.82 0.608,-0.911 0.092,-0.545 0,0" /></g><g
           transform="translate(169.9458,391.8921)"
           id="g438"><path
             id="path440"
             style="fill:#d9e0c8;fill-opacity:1;fill-rule:nonzero;stroke:none"
             d="M 0,0 C -0.092,0.545 0.275,1.061 0.82,1.153 1.364,1.245 1.88,0.878 1.972,0.333 2.064,-0.212 1.697,-0.728 1.153,-0.82 0.608,-0.911 0.092,-0.545 0,0" /></g><g
           transform="translate(236.6034,423.5587)"
           id="g442"><path
             id="path444"
             style="fill:#d9e0c8;fill-opacity:1;fill-rule:nonzero;stroke:none"
             d="M 0,0 C -0.092,0.545 0.275,1.061 0.82,1.153 1.364,1.245 1.88,0.878 1.972,0.333 2.064,-0.212 1.697,-0.728 1.153,-0.82 0.608,-0.911 0.092,-0.545 0,0" /></g><g
           transform="translate(193.0891,389.969)"
           id="g446"><path
             id="path448"
             style="fill:#d9e0c8;fill-opacity:1;fill-rule:nonzero;stroke:none"
             d="M 0,0 C -0.092,0.545 0.275,1.061 0.82,1.153 1.364,1.245 1.88,0.878 1.972,0.333 2.064,-0.212 1.697,-0.728 1.153,-0.82 0.608,-0.911 0.092,-0.545 0,0" /></g><g
           transform="translate(180.0678,415.2791)"
           id="g450"><path
             id="path452"
             style="fill:#d9e0c8;fill-opacity:1;fill-rule:nonzero;stroke:none"
             d="M 0,0 C -0.092,0.545 0.275,1.061 0.82,1.153 1.364,1.245 1.88,0.878 1.972,0.333 2.064,-0.212 1.697,-0.728 1.153,-0.82 0.608,-0.911 0.092,-0.545 0,0" /></g><g
           transform="translate(234.1922,398.0511)"
           id="g454"><path
             id="path456"
             style="fill:#d9e0c8;fill-opacity:1;fill-rule:nonzero;stroke:none"
             d="M 0,0 C -0.092,0.545 0.275,1.061 0.82,1.153 1.364,1.245 1.88,0.878 1.972,0.333 2.064,-0.212 1.697,-0.728 1.153,-0.82 0.608,-0.911 0.092,-0.545 0,0" /></g><g
           transform="translate(273.2912,363.2001)"
           id="g458"><path
             id="path460"
             style="fill:#d9e0c8;fill-opacity:1;fill-rule:nonzero;stroke:none"
             d="M 0,0 C -0.115,0.681 0.344,1.326 1.024,1.441 1.705,1.556 2.35,1.097 2.465,0.416 2.58,-0.264 2.121,-0.909 1.441,-1.024 0.76,-1.139 0.115,-0.681 0,0" /></g><g
           transform="translate(254.0158,391.7642)"
           id="g462"><path
             id="path464"
             style="fill:#d9e0c8;fill-opacity:1;fill-rule:nonzero;stroke:none"
             d="M 0,0 C -0.161,0.953 0.481,1.856 1.434,2.017 2.387,2.178 3.29,1.536 3.451,0.583 3.612,-0.37 2.97,-1.273 2.017,-1.434 1.064,-1.595 0.161,-0.953 0,0" /></g><g
           transform="translate(243.8798,355.6979)"
           id="g466"><path
             id="path468"
             style="fill:#d9e0c8;fill-opacity:1;fill-rule:nonzero;stroke:none"
             d="M 0,0 C -0.092,0.545 0.275,1.061 0.82,1.153 1.364,1.245 1.88,0.878 1.972,0.333 2.064,-0.212 1.697,-0.728 1.153,-0.82 0.608,-0.911 0.092,-0.545 0,0" /></g><g
           transform="translate(224.0701,374.6641)"
           id="g470"><path
             id="path472"
             style="fill:#d9e0c8;fill-opacity:1;fill-rule:nonzero;stroke:none"
             d="M 0,0 C -0.092,0.545 0.275,1.061 0.82,1.153 1.364,1.245 1.88,0.878 1.972,0.333 2.064,-0.212 1.697,-0.728 1.153,-0.82 0.608,-0.911 0.092,-0.545 0,0" /></g><g
           transform="translate(290.7278,406.3307)"
           id="g474"><path
             id="path476"
             style="fill:#d9e0c8;fill-opacity:1;fill-rule:nonzero;stroke:none"
             d="M 0,0 C -0.092,0.545 0.275,1.061 0.82,1.153 1.364,1.245 1.88,0.878 1.972,0.333 2.064,-0.212 1.697,-0.728 1.153,-0.82 0.608,-0.911 0.092,-0.545 0,0" /></g><g
           transform="translate(247.2135,372.7409)"
           id="g478"><path
             id="path480"
             style="fill:#d9e0c8;fill-opacity:1;fill-rule:nonzero;stroke:none"
             d="M 0,0 C -0.092,0.545 0.275,1.061 0.82,1.153 1.364,1.245 1.88,0.878 1.972,0.333 2.064,-0.212 1.697,-0.728 1.153,-0.82 0.608,-0.911 0.092,-0.545 0,0" /></g><g
           transform="translate(234.1922,398.0511)"
           id="g482"><path
             id="path484"
             style="fill:#d9e0c8;fill-opacity:1;fill-rule:nonzero;stroke:none"
             d="M 0,0 C -0.092,0.545 0.275,1.061 0.82,1.153 1.364,1.245 1.88,0.878 1.972,0.333 2.064,-0.212 1.697,-0.728 1.153,-0.82 0.608,-0.911 0.092,-0.545 0,0" /></g><g
           transform="translate(288.3165,380.823)"
           id="g486"><path
             id="path488"
             style="fill:#d9e0c8;fill-opacity:1;fill-rule:nonzero;stroke:none"
             d="M 0,0 C -0.092,0.545 0.275,1.061 0.82,1.153 1.364,1.245 1.88,0.878 1.972,0.333 2.064,-0.212 1.697,-0.728 1.153,-0.82 0.608,-0.911 0.092,-0.545 0,0" /></g><g
           transform="translate(351.3953,439.6953)"
           id="g490"><path
             id="path492"
             style="fill:#d9e0c8;fill-opacity:1;fill-rule:nonzero;stroke:none"
             d="M 0,0 C -0.115,0.681 0.344,1.326 1.024,1.441 1.705,1.556 2.35,1.097 2.465,0.416 2.58,-0.264 2.121,-0.909 1.441,-1.024 0.76,-1.139 0.115,-0.681 0,0" /></g><g
           transform="translate(332.1199,468.2594)"
           id="g494"><path
             id="path496"
             style="fill:#d9e0c8;fill-opacity:1;fill-rule:nonzero;stroke:none"
             d="M 0,0 C -0.161,0.953 0.481,1.856 1.434,2.017 2.387,2.178 3.29,1.536 3.451,0.583 3.612,-0.37 2.97,-1.273 2.017,-1.434 1.064,-1.595 0.161,-0.953 0,0" /></g><g
           transform="translate(321.9839,432.1931)"
           id="g498"><path
             id="path500"
             style="fill:#d9e0c8;fill-opacity:1;fill-rule:nonzero;stroke:none"
             d="M 0,0 C -0.092,0.545 0.275,1.061 0.82,1.153 1.364,1.245 1.88,0.878 1.972,0.333 2.064,-0.212 1.697,-0.728 1.153,-0.82 0.608,-0.911 0.092,-0.545 0,0" /></g><g
           transform="translate(302.1742,451.1593)"
           id="g502"><path
             id="path504"
             style="fill:#d9e0c8;fill-opacity:1;fill-rule:nonzero;stroke:none"
             d="M 0,0 C -0.092,0.545 0.275,1.061 0.82,1.153 1.364,1.245 1.88,0.878 1.972,0.333 2.064,-0.212 1.697,-0.728 1.153,-0.82 0.608,-0.911 0.092,-0.545 0,0" /></g><g
           transform="translate(368.8319,482.8258)"
           id="g506"><path
             id="path508"
             style="fill:#d9e0c8;fill-opacity:1;fill-rule:nonzero;stroke:none"
             d="M 0,0 C -0.092,0.545 0.275,1.061 0.82,1.153 1.364,1.245 1.88,0.878 1.972,0.333 2.064,-0.212 1.697,-0.728 1.153,-0.82 0.608,-0.911 0.092,-0.545 0,0" /></g><g
           transform="translate(325.3176,449.2361)"
           id="g510"><path
             id="path512"
             style="fill:#d9e0c8;fill-opacity:1;fill-rule:nonzero;stroke:none"
             d="M 0,0 C -0.092,0.545 0.275,1.061 0.82,1.153 1.364,1.245 1.88,0.878 1.972,0.333 2.064,-0.212 1.697,-0.728 1.153,-0.82 0.608,-0.911 0.092,-0.545 0,0" /></g><g
           transform="translate(312.2963,474.5462)"
           id="g514"><path
             id="path516"
             style="fill:#d9e0c8;fill-opacity:1;fill-rule:nonzero;stroke:none"
             d="M 0,0 C -0.092,0.545 0.275,1.061 0.82,1.153 1.364,1.245 1.88,0.878 1.972,0.333 2.064,-0.212 1.697,-0.728 1.153,-0.82 0.608,-0.911 0.092,-0.545 0,0" /></g><g
           transform="translate(366.4206,457.3182)"
           id="g518"><path
             id="path520"
             style="fill:#d9e0c8;fill-opacity:1;fill-rule:nonzero;stroke:none"
             d="M 0,0 C -0.092,0.545 0.275,1.061 0.82,1.153 1.364,1.245 1.88,0.878 1.972,0.333 2.064,-0.212 1.697,-0.728 1.153,-0.82 0.608,-0.911 0.092,-0.545 0,0" /></g><g
           transform="translate(245.3766,430.919)"
           id="g522"><path
             id="path524"
             style="fill:#d9e0c8;fill-opacity:1;fill-rule:nonzero;stroke:none"
             d="M 0,0 C -0.115,0.681 0.344,1.326 1.024,1.441 1.705,1.556 2.35,1.097 2.465,0.416 2.58,-0.264 2.121,-0.909 1.441,-1.024 0.76,-1.139 0.115,-0.681 0,0" /></g><g
           transform="translate(226.1011,459.4832)"
           id="g526"><path
             id="path528"
             style="fill:#d9e0c8;fill-opacity:1;fill-rule:nonzero;stroke:none"
             d="M 0,0 C -0.161,0.953 0.481,1.856 1.434,2.017 2.387,2.178 3.29,1.536 3.451,0.583 3.612,-0.37 2.97,-1.273 2.017,-1.434 1.064,-1.595 0.161,-0.953 0,0" /></g><g
           transform="translate(215.9652,423.4169)"
           id="g530"><path
             id="path532"
             style="fill:#d9e0c8;fill-opacity:1;fill-rule:nonzero;stroke:none"
             d="M 0,0 C -0.092,0.545 0.275,1.061 0.82,1.153 1.364,1.245 1.88,0.878 1.972,0.333 2.064,-0.212 1.697,-0.728 1.153,-0.82 0.608,-0.911 0.092,-0.545 0,0" /></g><g
           transform="translate(196.1555,442.3831)"
           id="g534"><path
             id="path536"
             style="fill:#d9e0c8;fill-opacity:1;fill-rule:nonzero;stroke:none"
             d="M 0,0 C -0.092,0.545 0.275,1.061 0.82,1.153 1.364,1.245 1.88,0.878 1.972,0.333 2.064,-0.212 1.697,-0.728 1.153,-0.82 0.608,-0.911 0.092,-0.545 0,0" /></g><g
           transform="translate(262.8131,474.0497)"
           id="g538"><path
             id="path540"
             style="fill:#d9e0c8;fill-opacity:1;fill-rule:nonzero;stroke:none"
             d="M 0,0 C -0.092,0.545 0.275,1.061 0.82,1.153 1.364,1.245 1.88,0.878 1.972,0.333 2.064,-0.212 1.697,-0.728 1.153,-0.82 0.608,-0.911 0.092,-0.545 0,0" /></g><g
           transform="translate(219.2988,440.4599)"
           id="g542"><path
             id="path544"
             style="fill:#d9e0c8;fill-opacity:1;fill-rule:nonzero;stroke:none"
             d="M 0,0 C -0.092,0.545 0.275,1.061 0.82,1.153 1.364,1.245 1.88,0.878 1.972,0.333 2.064,-0.212 1.697,-0.728 1.153,-0.82 0.608,-0.911 0.092,-0.545 0,0" /></g><g
           transform="translate(206.2775,465.7701)"
           id="g546"><path
             id="path548"
             style="fill:#d9e0c8;fill-opacity:1;fill-rule:nonzero;stroke:none"
             d="M 0,0 C -0.092,0.545 0.275,1.061 0.82,1.153 1.364,1.245 1.88,0.878 1.972,0.333 2.064,-0.212 1.697,-0.728 1.153,-0.82 0.608,-0.911 0.092,-0.545 0,0" /></g><g
           transform="translate(260.4019,448.542)"
           id="g550"><path
             id="path552"
             style="fill:#d9e0c8;fill-opacity:1;fill-rule:nonzero;stroke:none"
             d="M 0,0 C -0.092,0.545 0.275,1.061 0.82,1.153 1.364,1.245 1.88,0.878 1.972,0.333 2.064,-0.212 1.697,-0.728 1.153,-0.82 0.608,-0.911 0.092,-0.545 0,0" /></g><g
           transform="translate(299.5009,413.691)"
           id="g554"><path
             id="path556"
             style="fill:#d9e0c8;fill-opacity:1;fill-rule:nonzero;stroke:none"
             d="M 0,0 C -0.115,0.681 0.344,1.326 1.024,1.441 1.705,1.556 2.35,1.097 2.465,0.416 2.58,-0.264 2.121,-0.909 1.441,-1.024 0.76,-1.139 0.115,-0.681 0,0" /></g><g
           transform="translate(280.2255,442.2552)"
           id="g558"><path
             id="path560"
             style="fill:#d9e0c8;fill-opacity:1;fill-rule:nonzero;stroke:none"
             d="M 0,0 C -0.161,0.953 0.481,1.856 1.434,2.017 2.387,2.178 3.29,1.536 3.451,0.583 3.612,-0.37 2.97,-1.273 2.017,-1.434 1.064,-1.595 0.161,-0.953 0,0" /></g><g
           transform="translate(270.0895,406.1889)"
           id="g562"><path
             id="path564"
             style="fill:#d9e0c8;fill-opacity:1;fill-rule:nonzero;stroke:none"
             d="M 0,0 C -0.092,0.545 0.275,1.061 0.82,1.153 1.364,1.245 1.88,0.878 1.972,0.333 2.064,-0.212 1.697,-0.728 1.153,-0.82 0.608,-0.911 0.092,-0.545 0,0" /></g><g
           transform="translate(250.2798,425.155)"
           id="g566"><path
             id="path568"
             style="fill:#d9e0c8;fill-opacity:1;fill-rule:nonzero;stroke:none"
             d="M 0,0 C -0.092,0.545 0.275,1.061 0.82,1.153 1.364,1.245 1.88,0.878 1.972,0.333 2.064,-0.212 1.697,-0.728 1.153,-0.82 0.608,-0.911 0.092,-0.545 0,0" /></g><g
           transform="translate(316.9375,456.8216)"
           id="g570"><path
             id="path572"
             style="fill:#d9e0c8;fill-opacity:1;fill-rule:nonzero;stroke:none"
             d="M 0,0 C -0.092,0.545 0.275,1.061 0.82,1.153 1.364,1.245 1.88,0.878 1.972,0.333 2.064,-0.212 1.697,-0.728 1.153,-0.82 0.608,-0.911 0.092,-0.545 0,0" /></g><g
           transform="translate(273.4232,423.2319)"
           id="g574"><path
             id="path576"
             style="fill:#d9e0c8;fill-opacity:1;fill-rule:nonzero;stroke:none"
             d="M 0,0 C -0.092,0.545 0.275,1.061 0.82,1.153 1.364,1.245 1.88,0.878 1.972,0.333 2.064,-0.212 1.697,-0.728 1.153,-0.82 0.608,-0.911 0.092,-0.545 0,0" /></g><g
           transform="translate(260.4019,448.542)"
           id="g578"><path
             id="path580"
             style="fill:#d9e0c8;fill-opacity:1;fill-rule:nonzero;stroke:none"
             d="M 0,0 C -0.092,0.545 0.275,1.061 0.82,1.153 1.364,1.245 1.88,0.878 1.972,0.333 2.064,-0.212 1.697,-0.728 1.153,-0.82 0.608,-0.911 0.092,-0.545 0,0" /></g><g
           transform="translate(314.5262,431.314)"
           id="g582"><path
             id="path584"
             style="fill:#d9e0c8;fill-opacity:1;fill-rule:nonzero;stroke:none"
             d="M 0,0 C -0.092,0.545 0.275,1.061 0.82,1.153 1.364,1.245 1.88,0.878 1.972,0.333 2.064,-0.212 1.697,-0.728 1.153,-0.82 0.608,-0.911 0.092,-0.545 0,0" /></g><g
           transform="translate(353.6253,396.463)"
           id="g586"><path
             id="path588"
             style="fill:#d9e0c8;fill-opacity:1;fill-rule:nonzero;stroke:none"
             d="M 0,0 C -0.115,0.681 0.344,1.326 1.024,1.441 1.705,1.556 2.35,1.097 2.465,0.416 2.58,-0.264 2.121,-0.909 1.441,-1.024 0.76,-1.139 0.115,-0.681 0,0" /></g><g
           transform="translate(334.3498,425.0272)"
           id="g590"><path
             id="path592"
             style="fill:#d9e0c8;fill-opacity:1;fill-rule:nonzero;stroke:none"
             d="M 0,0 C -0.161,0.953 0.481,1.856 1.434,2.017 2.387,2.178 3.29,1.536 3.451,0.583 3.612,-0.37 2.97,-1.273 2.017,-1.434 1.064,-1.595 0.161,-0.953 0,0" /></g><g
           transform="translate(324.2139,388.9608)"
           id="g594"><path
             id="path596"
             style="fill:#d9e0c8;fill-opacity:1;fill-rule:nonzero;stroke:none"
             d="M 0,0 C -0.092,0.545 0.275,1.061 0.82,1.153 1.364,1.245 1.88,0.878 1.972,0.333 2.064,-0.212 1.697,-0.728 1.153,-0.82 0.608,-0.911 0.092,-0.545 0,0" /></g><g
           transform="translate(304.4042,407.927)"
           id="g598"><path
             id="path600"
             style="fill:#d9e0c8;fill-opacity:1;fill-rule:nonzero;stroke:none"
             d="M 0,0 C -0.092,0.545 0.275,1.061 0.82,1.153 1.364,1.245 1.88,0.878 1.972,0.333 2.064,-0.212 1.697,-0.728 1.153,-0.82 0.608,-0.911 0.092,-0.545 0,0" /></g><g
           transform="translate(371.0618,439.5936)"
           id="g602"><path
             id="path604"
             style="fill:#d9e0c8;fill-opacity:1;fill-rule:nonzero;stroke:none"
             d="M 0,0 C -0.092,0.545 0.275,1.061 0.82,1.153 1.364,1.245 1.88,0.878 1.972,0.333 2.064,-0.212 1.697,-0.728 1.153,-0.82 0.608,-0.911 0.092,-0.545 0,0" /></g><g
           transform="translate(327.5475,406.0039)"
           id="g606"><path
             id="path608"
             style="fill:#d9e0c8;fill-opacity:1;fill-rule:nonzero;stroke:none"
             d="M 0,0 C -0.092,0.545 0.275,1.061 0.82,1.153 1.364,1.245 1.88,0.878 1.972,0.333 2.064,-0.212 1.697,-0.728 1.153,-0.82 0.608,-0.911 0.092,-0.545 0,0" /></g><g
           transform="translate(314.5262,431.314)"
           id="g610"><path
             id="path612"
             style="fill:#d9e0c8;fill-opacity:1;fill-rule:nonzero;stroke:none"
             d="M 0,0 C -0.092,0.545 0.275,1.061 0.82,1.153 1.364,1.245 1.88,0.878 1.972,0.333 2.064,-0.212 1.697,-0.728 1.153,-0.82 0.608,-0.911 0.092,-0.545 0,0" /></g><g
           transform="translate(368.6505,414.086)"
           id="g614"><path
             id="path616"
             style="fill:#d9e0c8;fill-opacity:1;fill-rule:nonzero;stroke:none"
             d="M 0,0 C -0.092,0.545 0.275,1.061 0.82,1.153 1.364,1.245 1.88,0.878 1.972,0.333 2.064,-0.212 1.697,-0.728 1.153,-0.82 0.608,-0.911 0.092,-0.545 0,0" /></g><g
           transform="translate(407.7496,379.235)"
           id="g618"><path
             id="path620"
             style="fill:#d9e0c8;fill-opacity:1;fill-rule:nonzero;stroke:none"
             d="M 0,0 C -0.115,0.681 0.344,1.326 1.024,1.441 1.705,1.556 2.35,1.097 2.465,0.416 2.58,-0.264 2.121,-0.909 1.441,-1.024 0.76,-1.139 0.115,-0.681 0,0" /></g><g
           transform="translate(388.4742,407.7991)"
           id="g622"><path
             id="path624"
             style="fill:#d9e0c8;fill-opacity:1;fill-rule:nonzero;stroke:none"
             d="M 0,0 C -0.161,0.953 0.481,1.856 1.434,2.017 2.387,2.178 3.29,1.536 3.451,0.583 3.612,-0.37 2.97,-1.273 2.017,-1.434 1.064,-1.595 0.161,-0.953 0,0" /></g><g
           transform="translate(378.3382,371.7328)"
           id="g626"><path
             id="path628"
             style="fill:#d9e0c8;fill-opacity:1;fill-rule:nonzero;stroke:none"
             d="M 0,0 C -0.092,0.545 0.275,1.061 0.82,1.153 1.364,1.245 1.88,0.878 1.972,0.333 2.064,-0.212 1.697,-0.728 1.153,-0.82 0.608,-0.911 0.092,-0.545 0,0" /></g><g
           transform="translate(358.5285,390.699)"
           id="g630"><path
             id="path632"
             style="fill:#d9e0c8;fill-opacity:1;fill-rule:nonzero;stroke:none"
             d="M 0,0 C -0.092,0.545 0.275,1.061 0.82,1.153 1.364,1.245 1.88,0.878 1.972,0.333 2.064,-0.212 1.697,-0.728 1.153,-0.82 0.608,-0.911 0.092,-0.545 0,0" /></g><g
           transform="translate(425.1862,422.3656)"
           id="g634"><path
             id="path636"
             style="fill:#d9e0c8;fill-opacity:1;fill-rule:nonzero;stroke:none"
             d="M 0,0 C -0.092,0.545 0.275,1.061 0.82,1.153 1.364,1.245 1.88,0.878 1.972,0.333 2.064,-0.212 1.697,-0.728 1.153,-0.82 0.608,-0.911 0.092,-0.545 0,0" /></g><g
           transform="translate(381.6718,388.7758)"
           id="g638"><path
             id="path640"
             style="fill:#d9e0c8;fill-opacity:1;fill-rule:nonzero;stroke:none"
             d="M 0,0 C -0.092,0.545 0.275,1.061 0.82,1.153 1.364,1.245 1.88,0.878 1.972,0.333 2.064,-0.212 1.697,-0.728 1.153,-0.82 0.608,-0.911 0.092,-0.545 0,0" /></g><g
           transform="translate(368.6505,414.086)"
           id="g642"><path
             id="path644"
             style="fill:#d9e0c8;fill-opacity:1;fill-rule:nonzero;stroke:none"
             d="M 0,0 C -0.092,0.545 0.275,1.061 0.82,1.153 1.364,1.245 1.88,0.878 1.972,0.333 2.064,-0.212 1.697,-0.728 1.153,-0.82 0.608,-0.911 0.092,-0.545 0,0" /></g><g
           transform="translate(422.7749,396.8579)"
           id="g646"><path
             id="path648"
             style="fill:#d9e0c8;fill-opacity:1;fill-rule:nonzero;stroke:none"
             d="M 0,0 C -0.092,0.545 0.275,1.061 0.82,1.153 1.364,1.245 1.88,0.878 1.972,0.333 2.064,-0.212 1.697,-0.728 1.153,-0.82 0.608,-0.911 0.092,-0.545 0,0" /></g><g
           transform="translate(461.874,362.007)"
           id="g650"><path
             id="path652"
             style="fill:#d9e0c8;fill-opacity:1;fill-rule:nonzero;stroke:none"
             d="M 0,0 C -0.115,0.681 0.344,1.326 1.024,1.441 1.705,1.556 2.35,1.097 2.465,0.416 2.58,-0.264 2.121,-0.909 1.441,-1.024 0.76,-1.139 0.115,-0.681 0,0" /></g><g
           transform="translate(442.5985,390.5711)"
           id="g654"><path
             id="path656"
             style="fill:#d9e0c8;fill-opacity:1;fill-rule:nonzero;stroke:none"
             d="M 0,0 C -0.161,0.953 0.481,1.856 1.434,2.017 2.387,2.178 3.29,1.536 3.451,0.583 3.612,-0.37 2.97,-1.273 2.017,-1.434 1.064,-1.595 0.161,-0.953 0,0" /></g><g
           transform="translate(432.4626,354.5048)"
           id="g658"><path
             id="path660"
             style="fill:#d9e0c8;fill-opacity:1;fill-rule:nonzero;stroke:none"
             d="M 0,0 C -0.092,0.545 0.275,1.061 0.82,1.153 1.364,1.245 1.88,0.878 1.972,0.333 2.064,-0.212 1.697,-0.728 1.153,-0.82 0.608,-0.911 0.092,-0.545 0,0" /></g><g
           transform="translate(412.6529,373.471)"
           id="g662"><path
             id="path664"
             style="fill:#d9e0c8;fill-opacity:1;fill-rule:nonzero;stroke:none"
             d="M 0,0 C -0.092,0.545 0.275,1.061 0.82,1.153 1.364,1.245 1.88,0.878 1.972,0.333 2.064,-0.212 1.697,-0.728 1.153,-0.82 0.608,-0.911 0.092,-0.545 0,0" /></g><g
           transform="translate(479.3105,405.1375)"
           id="g666"><path
             id="path668"
             style="fill:#d9e0c8;fill-opacity:1;fill-rule:nonzero;stroke:none"
             d="M 0,0 C -0.092,0.545 0.275,1.061 0.82,1.153 1.364,1.245 1.88,0.878 1.972,0.333 2.064,-0.212 1.697,-0.728 1.153,-0.82 0.608,-0.911 0.092,-0.545 0,0" /></g><g
           transform="translate(435.7962,371.5478)"
           id="g670"><path
             id="path672"
             style="fill:#d9e0c8;fill-opacity:1;fill-rule:nonzero;stroke:none"
             d="M 0,0 C -0.092,0.545 0.275,1.061 0.82,1.153 1.364,1.245 1.88,0.878 1.972,0.333 2.064,-0.212 1.697,-0.728 1.153,-0.82 0.608,-0.911 0.092,-0.545 0,0" /></g><g
           transform="translate(422.7749,396.8579)"
           id="g674"><path
             id="path676"
             style="fill:#d9e0c8;fill-opacity:1;fill-rule:nonzero;stroke:none"
             d="M 0,0 C -0.092,0.545 0.275,1.061 0.82,1.153 1.364,1.245 1.88,0.878 1.972,0.333 2.064,-0.212 1.697,-0.728 1.153,-0.82 0.608,-0.911 0.092,-0.545 0,0" /></g><g
           transform="translate(476.8993,379.6299)"
           id="g678"><path
             id="path680"
             style="fill:#d9e0c8;fill-opacity:1;fill-rule:nonzero;stroke:none"
             d="M 0,0 C -0.092,0.545 0.275,1.061 0.82,1.153 1.364,1.245 1.88,0.878 1.972,0.333 2.064,-0.212 1.697,-0.728 1.153,-0.82 0.608,-0.911 0.092,-0.545 0,0" /></g><g
           transform="translate(546.8295,437.7122)"
           id="g682"><path
             id="path684"
             style="fill:#d9e0c8;fill-opacity:1;fill-rule:nonzero;stroke:none"
             d="M 0,0 C -0.115,0.681 0.344,1.326 1.024,1.441 1.705,1.556 2.35,1.097 2.465,0.416 2.58,-0.264 2.121,-0.909 1.441,-1.024 0.76,-1.139 0.115,-0.681 0,0" /></g><g
           transform="translate(527.554,466.2764)"
           id="g686"><path
             id="path688"
             style="fill:#d9e0c8;fill-opacity:1;fill-rule:nonzero;stroke:none"
             d="M 0,0 C -0.161,0.953 0.481,1.856 1.434,2.017 2.387,2.178 3.29,1.536 3.451,0.583 3.612,-0.37 2.97,-1.273 2.017,-1.434 1.064,-1.595 0.161,-0.953 0,0" /></g><g
           transform="translate(517.4181,430.2101)"
           id="g690"><path
             id="path692"
             style="fill:#d9e0c8;fill-opacity:1;fill-rule:nonzero;stroke:none"
             d="M 0,0 C -0.092,0.545 0.275,1.061 0.82,1.153 1.364,1.245 1.88,0.878 1.972,0.333 2.064,-0.212 1.697,-0.728 1.153,-0.82 0.608,-0.911 0.092,-0.545 0,0" /></g><g
           transform="translate(497.6084,449.1762)"
           id="g694"><path
             id="path696"
             style="fill:#d9e0c8;fill-opacity:1;fill-rule:nonzero;stroke:none"
             d="M 0,0 C -0.092,0.545 0.275,1.061 0.82,1.153 1.364,1.245 1.88,0.878 1.972,0.333 2.064,-0.212 1.697,-0.728 1.153,-0.82 0.608,-0.911 0.092,-0.545 0,0" /></g><g
           transform="translate(564.2661,480.8428)"
           id="g698"><path
             id="path700"
             style="fill:#d9e0c8;fill-opacity:1;fill-rule:nonzero;stroke:none"
             d="M 0,0 C -0.092,0.545 0.275,1.061 0.82,1.153 1.364,1.245 1.88,0.878 1.972,0.333 2.064,-0.212 1.697,-0.728 1.153,-0.82 0.608,-0.911 0.092,-0.545 0,0" /></g><g
           transform="translate(520.7517,447.2531)"
           id="g702"><path
             id="path704"
             style="fill:#d9e0c8;fill-opacity:1;fill-rule:nonzero;stroke:none"
             d="M 0,0 C -0.092,0.545 0.275,1.061 0.82,1.153 1.364,1.245 1.88,0.878 1.972,0.333 2.064,-0.212 1.697,-0.728 1.153,-0.82 0.608,-0.911 0.092,-0.545 0,0" /></g><g
           transform="translate(507.7304,472.5632)"
           id="g706"><path
             id="path708"
             style="fill:#d9e0c8;fill-opacity:1;fill-rule:nonzero;stroke:none"
             d="M 0,0 C -0.092,0.545 0.275,1.061 0.82,1.153 1.364,1.245 1.88,0.878 1.972,0.333 2.064,-0.212 1.697,-0.728 1.153,-0.82 0.608,-0.911 0.092,-0.545 0,0" /></g><g
           transform="translate(561.8548,455.3352)"
           id="g710"><path
             id="path712"
             style="fill:#d9e0c8;fill-opacity:1;fill-rule:nonzero;stroke:none"
             d="M 0,0 C -0.092,0.545 0.275,1.061 0.82,1.153 1.364,1.245 1.88,0.878 1.972,0.333 2.064,-0.212 1.697,-0.728 1.153,-0.82 0.608,-0.911 0.092,-0.545 0,0" /></g><g
           transform="translate(440.8107,428.936)"
           id="g714"><path
             id="path716"
             style="fill:#d9e0c8;fill-opacity:1;fill-rule:nonzero;stroke:none"
             d="M 0,0 C -0.115,0.681 0.344,1.326 1.024,1.441 1.705,1.556 2.35,1.097 2.465,0.416 2.58,-0.264 2.121,-0.909 1.441,-1.024 0.76,-1.139 0.115,-0.681 0,0" /></g><g
           transform="translate(421.5353,457.5002)"
           id="g718"><path
             id="path720"
             style="fill:#d9e0c8;fill-opacity:1;fill-rule:nonzero;stroke:none"
             d="M 0,0 C -0.161,0.953 0.481,1.856 1.434,2.017 2.387,2.178 3.29,1.536 3.451,0.583 3.612,-0.37 2.97,-1.273 2.017,-1.434 1.064,-1.595 0.161,-0.953 0,0" /></g><g
           transform="translate(411.3993,421.4338)"
           id="g722"><path
             id="path724"
             style="fill:#d9e0c8;fill-opacity:1;fill-rule:nonzero;stroke:none"
             d="M 0,0 C -0.092,0.545 0.275,1.061 0.82,1.153 1.364,1.245 1.88,0.878 1.972,0.333 2.064,-0.212 1.697,-0.728 1.153,-0.82 0.608,-0.911 0.092,-0.545 0,0" /></g><g
           transform="translate(391.5896,440.4)"
           id="g726"><path
             id="path728"
             style="fill:#d9e0c8;fill-opacity:1;fill-rule:nonzero;stroke:none"
             d="M 0,0 C -0.092,0.545 0.275,1.061 0.82,1.153 1.364,1.245 1.88,0.878 1.972,0.333 2.064,-0.212 1.697,-0.728 1.153,-0.82 0.608,-0.911 0.092,-0.545 0,0" /></g><g
           transform="translate(458.2473,472.0666)"
           id="g730"><path
             id="path732"
             style="fill:#d9e0c8;fill-opacity:1;fill-rule:nonzero;stroke:none"
             d="M 0,0 C -0.092,0.545 0.275,1.061 0.82,1.153 1.364,1.245 1.88,0.878 1.972,0.333 2.064,-0.212 1.697,-0.728 1.153,-0.82 0.608,-0.911 0.092,-0.545 0,0" /></g><g
           transform="translate(414.733,438.4769)"
           id="g734"><path
             id="path736"
             style="fill:#d9e0c8;fill-opacity:1;fill-rule:nonzero;stroke:none"
             d="M 0,0 C -0.092,0.545 0.275,1.061 0.82,1.153 1.364,1.245 1.88,0.878 1.972,0.333 2.064,-0.212 1.697,-0.728 1.153,-0.82 0.608,-0.911 0.092,-0.545 0,0" /></g><g
           transform="translate(401.7117,463.787)"
           id="g738"><path
             id="path740"
             style="fill:#d9e0c8;fill-opacity:1;fill-rule:nonzero;stroke:none"
             d="M 0,0 C -0.092,0.545 0.275,1.061 0.82,1.153 1.364,1.245 1.88,0.878 1.972,0.333 2.064,-0.212 1.697,-0.728 1.153,-0.82 0.608,-0.911 0.092,-0.545 0,0" /></g><g
           transform="translate(455.836,446.559)"
           id="g742"><path
             id="path744"
             style="fill:#d9e0c8;fill-opacity:1;fill-rule:nonzero;stroke:none"
             d="M 0,0 C -0.092,0.545 0.275,1.061 0.82,1.153 1.364,1.245 1.88,0.878 1.972,0.333 2.064,-0.212 1.697,-0.728 1.153,-0.82 0.608,-0.911 0.092,-0.545 0,0" /></g><g
           transform="translate(494.9351,411.708)"
           id="g746"><path
             id="path748"
             style="fill:#d9e0c8;fill-opacity:1;fill-rule:nonzero;stroke:none"
             d="M 0,0 C -0.115,0.681 0.344,1.326 1.024,1.441 1.705,1.556 2.35,1.097 2.465,0.416 2.58,-0.264 2.121,-0.909 1.441,-1.024 0.76,-1.139 0.115,-0.681 0,0" /></g><g
           transform="translate(475.6596,440.2721)"
           id="g750"><path
             id="path752"
             style="fill:#d9e0c8;fill-opacity:1;fill-rule:nonzero;stroke:none"
             d="M 0,0 C -0.161,0.953 0.481,1.856 1.434,2.017 2.387,2.178 3.29,1.536 3.451,0.583 3.612,-0.37 2.97,-1.273 2.017,-1.434 1.064,-1.595 0.161,-0.953 0,0" /></g><g
           transform="translate(465.5237,404.2058)"
           id="g754"><path
             id="path756"
             style="fill:#d9e0c8;fill-opacity:1;fill-rule:nonzero;stroke:none"
             d="M 0,0 C -0.092,0.545 0.275,1.061 0.82,1.153 1.364,1.245 1.88,0.878 1.972,0.333 2.064,-0.212 1.697,-0.728 1.153,-0.82 0.608,-0.911 0.092,-0.545 0,0" /></g><g
           transform="translate(445.714,423.172)"
           id="g758"><path
             id="path760"
             style="fill:#d9e0c8;fill-opacity:1;fill-rule:nonzero;stroke:none"
             d="M 0,0 C -0.092,0.545 0.275,1.061 0.82,1.153 1.364,1.245 1.88,0.878 1.972,0.333 2.064,-0.212 1.697,-0.728 1.153,-0.82 0.608,-0.911 0.092,-0.545 0,0" /></g><g
           transform="translate(512.3716,454.8386)"
           id="g762"><path
             id="path764"
             style="fill:#d9e0c8;fill-opacity:1;fill-rule:nonzero;stroke:none"
             d="M 0,0 C -0.092,0.545 0.275,1.061 0.82,1.153 1.364,1.245 1.88,0.878 1.972,0.333 2.064,-0.212 1.697,-0.728 1.153,-0.82 0.608,-0.911 0.092,-0.545 0,0" /></g><g
           transform="translate(468.8573,421.2489)"
           id="g766"><path
             id="path768"
             style="fill:#d9e0c8;fill-opacity:1;fill-rule:nonzero;stroke:none"
             d="M 0,0 C -0.092,0.545 0.275,1.061 0.82,1.153 1.364,1.245 1.88,0.878 1.972,0.333 2.064,-0.212 1.697,-0.728 1.153,-0.82 0.608,-0.911 0.092,-0.545 0,0" /></g><g
           transform="translate(455.836,446.559)"
           id="g770"><path
             id="path772"
             style="fill:#d9e0c8;fill-opacity:1;fill-rule:nonzero;stroke:none"
             d="M 0,0 C -0.092,0.545 0.275,1.061 0.82,1.153 1.364,1.245 1.88,0.878 1.972,0.333 2.064,-0.212 1.697,-0.728 1.153,-0.82 0.608,-0.911 0.092,-0.545 0,0" /></g><g
           transform="translate(509.9604,429.331)"
           id="g774"><path
             id="path776"
             style="fill:#d9e0c8;fill-opacity:1;fill-rule:nonzero;stroke:none"
             d="M 0,0 C -0.092,0.545 0.275,1.061 0.82,1.153 1.364,1.245 1.88,0.878 1.972,0.333 2.064,-0.212 1.697,-0.728 1.153,-0.82 0.608,-0.911 0.092,-0.545 0,0" /></g><g
           transform="translate(549.0594,394.48)"
           id="g778"><path
             id="path780"
             style="fill:#d9e0c8;fill-opacity:1;fill-rule:nonzero;stroke:none"
             d="M 0,0 C -0.115,0.681 0.344,1.326 1.024,1.441 1.705,1.556 2.35,1.097 2.465,0.416 2.58,-0.264 2.121,-0.909 1.441,-1.024 0.76,-1.139 0.115,-0.681 0,0" /></g><g
           transform="translate(529.784,423.0441)"
           id="g782"><path
             id="path784"
             style="fill:#d9e0c8;fill-opacity:1;fill-rule:nonzero;stroke:none"
             d="M 0,0 C -0.161,0.953 0.481,1.856 1.434,2.017 2.387,2.178 3.29,1.536 3.451,0.583 3.612,-0.37 2.97,-1.273 2.017,-1.434 1.064,-1.595 0.161,-0.953 0,0" /></g><g
           transform="translate(519.648,386.9778)"
           id="g786"><path
             id="path788"
             style="fill:#d9e0c8;fill-opacity:1;fill-rule:nonzero;stroke:none"
             d="M 0,0 C -0.092,0.545 0.275,1.061 0.82,1.153 1.364,1.245 1.88,0.878 1.972,0.333 2.064,-0.212 1.697,-0.728 1.153,-0.82 0.608,-0.911 0.092,-0.545 0,0" /></g><g
           transform="translate(499.8383,405.944)"
           id="g790"><path
             id="path792"
             style="fill:#d9e0c8;fill-opacity:1;fill-rule:nonzero;stroke:none"
             d="M 0,0 C -0.092,0.545 0.275,1.061 0.82,1.153 1.364,1.245 1.88,0.878 1.972,0.333 2.064,-0.212 1.697,-0.728 1.153,-0.82 0.608,-0.911 0.092,-0.545 0,0" /></g><g
           transform="translate(566.496,437.6106)"
           id="g794"><path
             id="path796"
             style="fill:#d9e0c8;fill-opacity:1;fill-rule:nonzero;stroke:none"
             d="M 0,0 C -0.092,0.545 0.275,1.061 0.82,1.153 1.364,1.245 1.88,0.878 1.972,0.333 2.064,-0.212 1.697,-0.728 1.153,-0.82 0.608,-0.911 0.092,-0.545 0,0" /></g><g
           transform="translate(522.9816,404.0208)"
           id="g798"><path
             id="path800"
             style="fill:#d9e0c8;fill-opacity:1;fill-rule:nonzero;stroke:none"
             d="M 0,0 C -0.092,0.545 0.275,1.061 0.82,1.153 1.364,1.245 1.88,0.878 1.972,0.333 2.064,-0.212 1.697,-0.728 1.153,-0.82 0.608,-0.911 0.092,-0.545 0,0" /></g><g
           transform="translate(509.9604,429.331)"
           id="g802"><path
             id="path804"
             style="fill:#d9e0c8;fill-opacity:1;fill-rule:nonzero;stroke:none"
             d="M 0,0 C -0.092,0.545 0.275,1.061 0.82,1.153 1.364,1.245 1.88,0.878 1.972,0.333 2.064,-0.212 1.697,-0.728 1.153,-0.82 0.608,-0.911 0.092,-0.545 0,0" /></g><g
           transform="translate(564.0847,412.1029)"
           id="g806"><path
             id="path808"
             style="fill:#d9e0c8;fill-opacity:1;fill-rule:nonzero;stroke:none"
             d="M 0,0 C -0.092,0.545 0.275,1.061 0.82,1.153 1.364,1.245 1.88,0.878 1.972,0.333 2.064,-0.212 1.697,-0.728 1.153,-0.82 0.608,-0.911 0.092,-0.545 0,0" /></g><g
           transform="translate(603.1838,377.252)"
           id="g810"><path
             id="path812"
             style="fill:#d9e0c8;fill-opacity:1;fill-rule:nonzero;stroke:none"
             d="M 0,0 C -0.115,0.681 0.344,1.326 1.024,1.441 1.705,1.556 2.35,1.097 2.465,0.416 2.58,-0.264 2.121,-0.909 1.441,-1.024 0.76,-1.139 0.115,-0.681 0,0" /></g><g
           transform="translate(583.9083,405.8161)"
           id="g814"><path
             id="path816"
             style="fill:#d9e0c8;fill-opacity:1;fill-rule:nonzero;stroke:none"
             d="M 0,0 C -0.161,0.953 0.481,1.856 1.434,2.017 2.387,2.178 3.29,1.536 3.451,0.583 3.612,-0.37 2.97,-1.273 2.017,-1.434 1.064,-1.595 0.161,-0.953 0,0" /></g><g
           transform="translate(573.7724,369.7498)"
           id="g818"><path
             id="path820"
             style="fill:#d9e0c8;fill-opacity:1;fill-rule:nonzero;stroke:none"
             d="M 0,0 C -0.092,0.545 0.275,1.061 0.82,1.153 1.364,1.245 1.88,0.878 1.972,0.333 2.064,-0.212 1.697,-0.728 1.153,-0.82 0.608,-0.911 0.092,-0.545 0,0" /></g><g
           transform="translate(553.9626,388.716)"
           id="g822"><path
             id="path824"
             style="fill:#d9e0c8;fill-opacity:1;fill-rule:nonzero;stroke:none"
             d="M 0,0 C -0.092,0.545 0.275,1.061 0.82,1.153 1.364,1.245 1.88,0.878 1.972,0.333 2.064,-0.212 1.697,-0.728 1.153,-0.82 0.608,-0.911 0.092,-0.545 0,0" /></g><g
           transform="translate(620.6203,420.3825)"
           id="g826"><path
             id="path828"
             style="fill:#d9e0c8;fill-opacity:1;fill-rule:nonzero;stroke:none"
             d="M 0,0 C -0.092,0.545 0.275,1.061 0.82,1.153 1.364,1.245 1.88,0.878 1.972,0.333 2.064,-0.212 1.697,-0.728 1.153,-0.82 0.608,-0.911 0.092,-0.545 0,0" /></g><g
           transform="translate(577.106,386.7928)"
           id="g830"><path
             id="path832"
             style="fill:#d9e0c8;fill-opacity:1;fill-rule:nonzero;stroke:none"
             d="M 0,0 C -0.092,0.545 0.275,1.061 0.82,1.153 1.364,1.245 1.88,0.878 1.972,0.333 2.064,-0.212 1.697,-0.728 1.153,-0.82 0.608,-0.911 0.092,-0.545 0,0" /></g><g
           transform="translate(564.0847,412.1029)"
           id="g834"><path
             id="path836"
             style="fill:#d9e0c8;fill-opacity:1;fill-rule:nonzero;stroke:none"
             d="M 0,0 C -0.092,0.545 0.275,1.061 0.82,1.153 1.364,1.245 1.88,0.878 1.972,0.333 2.064,-0.212 1.697,-0.728 1.153,-0.82 0.608,-0.911 0.092,-0.545 0,0" /></g><g
           transform="translate(618.209,394.8749)"
           id="g838"><path
             id="path840"
             style="fill:#d9e0c8;fill-opacity:1;fill-rule:nonzero;stroke:none"
             d="M 0,0 C -0.092,0.545 0.275,1.061 0.82,1.153 1.364,1.245 1.88,0.878 1.972,0.333 2.064,-0.212 1.697,-0.728 1.153,-0.82 0.608,-0.911 0.092,-0.545 0,0" /></g><g
           transform="translate(657.3081,360.0239)"
           id="g842"><path
             id="path844"
             style="fill:#d9e0c8;fill-opacity:1;fill-rule:nonzero;stroke:none"
             d="M 0,0 C -0.115,0.681 0.344,1.326 1.024,1.441 1.705,1.556 2.35,1.097 2.465,0.416 2.58,-0.264 2.121,-0.909 1.441,-1.024 0.76,-1.139 0.115,-0.681 0,0" /></g><g
           transform="translate(638.0327,388.5881)"
           id="g846"><path
             id="path848"
             style="fill:#d9e0c8;fill-opacity:1;fill-rule:nonzero;stroke:none"
             d="M 0,0 C -0.161,0.953 0.481,1.856 1.434,2.017 2.387,2.178 3.29,1.536 3.451,0.583 3.612,-0.37 2.97,-1.273 2.017,-1.434 1.064,-1.595 0.161,-0.953 0,0" /></g><g
           transform="translate(627.8967,352.5218)"
           id="g850"><path
             id="path852"
             style="fill:#d9e0c8;fill-opacity:1;fill-rule:nonzero;stroke:none"
             d="M 0,0 C -0.092,0.545 0.275,1.061 0.82,1.153 1.364,1.245 1.88,0.878 1.972,0.333 2.064,-0.212 1.697,-0.728 1.153,-0.82 0.608,-0.911 0.092,-0.545 0,0" /></g><g
           transform="translate(608.087,371.4879)"
           id="g854"><path
             id="path856"
             style="fill:#d9e0c8;fill-opacity:1;fill-rule:nonzero;stroke:none"
             d="M 0,0 C -0.092,0.545 0.275,1.061 0.82,1.153 1.364,1.245 1.88,0.878 1.972,0.333 2.064,-0.212 1.697,-0.728 1.153,-0.82 0.608,-0.911 0.092,-0.545 0,0" /></g><g
           transform="translate(674.7447,403.1545)"
           id="g858"><path
             id="path860"
             style="fill:#d9e0c8;fill-opacity:1;fill-rule:nonzero;stroke:none"
             d="M 0,0 C -0.092,0.545 0.275,1.061 0.82,1.153 1.364,1.245 1.88,0.878 1.972,0.333 2.064,-0.212 1.697,-0.728 1.153,-0.82 0.608,-0.911 0.092,-0.545 0,0" /></g><g
           transform="translate(631.2303,369.5648)"
           id="g862"><path
             id="path864"
             style="fill:#d9e0c8;fill-opacity:1;fill-rule:nonzero;stroke:none"
             d="M 0,0 C -0.092,0.545 0.275,1.061 0.82,1.153 1.364,1.245 1.88,0.878 1.972,0.333 2.064,-0.212 1.697,-0.728 1.153,-0.82 0.608,-0.911 0.092,-0.545 0,0" /></g><g
           transform="translate(618.209,394.8749)"
           id="g866"><path
             id="path868"
             style="fill:#d9e0c8;fill-opacity:1;fill-rule:nonzero;stroke:none"
             d="M 0,0 C -0.092,0.545 0.275,1.061 0.82,1.153 1.364,1.245 1.88,0.878 1.972,0.333 2.064,-0.212 1.697,-0.728 1.153,-0.82 0.608,-0.911 0.092,-0.545 0,0" /></g><g
           transform="translate(672.3334,377.6469)"
           id="g870"><path
             id="path872"
             style="fill:#d9e0c8;fill-opacity:1;fill-rule:nonzero;stroke:none"
             d="M 0,0 C -0.092,0.545 0.275,1.061 0.82,1.153 1.364,1.245 1.88,0.878 1.972,0.333 2.064,-0.212 1.697,-0.728 1.153,-0.82 0.608,-0.911 0.092,-0.545 0,0" /></g><g
           transform="translate(703.1133,436.3008)"
           id="g874"><path
             id="path876"
             style="fill:#d9e0c8;fill-opacity:1;fill-rule:nonzero;stroke:none"
             d="M 0,0 C -0.115,0.681 0.344,1.326 1.024,1.441 1.705,1.556 2.35,1.097 2.465,0.416 2.58,-0.264 2.121,-0.909 1.441,-1.024 0.76,-1.139 0.115,-0.681 0,0" /></g><g
           transform="translate(683.8379,464.8649)"
           id="g878"><path
             id="path880"
             style="fill:#d9e0c8;fill-opacity:1;fill-rule:nonzero;stroke:none"
             d="M 0,0 C -0.161,0.953 0.481,1.856 1.434,2.017 2.387,2.178 3.29,1.536 3.451,0.583 3.612,-0.37 2.97,-1.273 2.017,-1.434 1.064,-1.595 0.161,-0.953 0,0" /></g><g
           transform="translate(673.702,428.7986)"
           id="g882"><path
             id="path884"
             style="fill:#d9e0c8;fill-opacity:1;fill-rule:nonzero;stroke:none"
             d="M 0,0 C -0.092,0.545 0.275,1.061 0.82,1.153 1.364,1.245 1.88,0.878 1.972,0.333 2.064,-0.212 1.697,-0.728 1.153,-0.82 0.608,-0.911 0.092,-0.545 0,0" /></g><g
           transform="translate(653.8923,447.7648)"
           id="g886"><path
             id="path888"
             style="fill:#d9e0c8;fill-opacity:1;fill-rule:nonzero;stroke:none"
             d="M 0,0 C -0.092,0.545 0.275,1.061 0.82,1.153 1.364,1.245 1.88,0.878 1.972,0.333 2.064,-0.212 1.697,-0.728 1.153,-0.82 0.608,-0.911 0.092,-0.545 0,0" /></g><g
           transform="translate(720.5499,479.4314)"
           id="g890"><path
             id="path892"
             style="fill:#d9e0c8;fill-opacity:1;fill-rule:nonzero;stroke:none"
             d="M 0,0 C -0.092,0.545 0.275,1.061 0.82,1.153 1.364,1.245 1.88,0.878 1.972,0.333 2.064,-0.212 1.697,-0.728 1.153,-0.82 0.608,-0.911 0.092,-0.545 0,0" /></g><g
           transform="translate(677.0356,445.8416)"
           id="g894"><path
             id="path896"
             style="fill:#d9e0c8;fill-opacity:1;fill-rule:nonzero;stroke:none"
             d="M 0,0 C -0.092,0.545 0.275,1.061 0.82,1.153 1.364,1.245 1.88,0.878 1.972,0.333 2.064,-0.212 1.697,-0.728 1.153,-0.82 0.608,-0.911 0.092,-0.545 0,0" /></g><g
           transform="translate(664.0143,471.1518)"
           id="g898"><path
             id="path900"
             style="fill:#d9e0c8;fill-opacity:1;fill-rule:nonzero;stroke:none"
             d="M 0,0 C -0.092,0.545 0.275,1.061 0.82,1.153 1.364,1.245 1.88,0.878 1.972,0.333 2.064,-0.212 1.697,-0.728 1.153,-0.82 0.608,-0.911 0.092,-0.545 0,0" /></g><g
           transform="translate(718.1386,453.9237)"
           id="g902"><path
             id="path904"
             style="fill:#d9e0c8;fill-opacity:1;fill-rule:nonzero;stroke:none"
             d="M 0,0 C -0.092,0.545 0.275,1.061 0.82,1.153 1.364,1.245 1.88,0.878 1.972,0.333 2.064,-0.212 1.697,-0.728 1.153,-0.82 0.608,-0.911 0.092,-0.545 0,0" /></g><g
           transform="translate(597.0946,427.5246)"
           id="g906"><path
             id="path908"
             style="fill:#d9e0c8;fill-opacity:1;fill-rule:nonzero;stroke:none"
             d="M 0,0 C -0.115,0.681 0.344,1.326 1.024,1.441 1.705,1.556 2.35,1.097 2.465,0.416 2.58,-0.264 2.121,-0.909 1.441,-1.024 0.76,-1.139 0.115,-0.681 0,0" /></g><g
           transform="translate(577.8192,456.0887)"
           id="g910"><path
             id="path912"
             style="fill:#d9e0c8;fill-opacity:1;fill-rule:nonzero;stroke:none"
             d="M 0,0 C -0.161,0.953 0.481,1.856 1.434,2.017 2.387,2.178 3.29,1.536 3.451,0.583 3.612,-0.37 2.97,-1.273 2.017,-1.434 1.064,-1.595 0.161,-0.953 0,0" /></g><g
           transform="translate(567.6832,420.0224)"
           id="g914"><path
             id="path916"
             style="fill:#d9e0c8;fill-opacity:1;fill-rule:nonzero;stroke:none"
             d="M 0,0 C -0.092,0.545 0.275,1.061 0.82,1.153 1.364,1.245 1.88,0.878 1.972,0.333 2.064,-0.212 1.697,-0.728 1.153,-0.82 0.608,-0.911 0.092,-0.545 0,0" /></g><g
           transform="translate(547.8735,438.9886)"
           id="g918"><path
             id="path920"
             style="fill:#d9e0c8;fill-opacity:1;fill-rule:nonzero;stroke:none"
             d="M 0,0 C -0.092,0.545 0.275,1.061 0.82,1.153 1.364,1.245 1.88,0.878 1.972,0.333 2.064,-0.212 1.697,-0.728 1.153,-0.82 0.608,-0.911 0.092,-0.545 0,0" /></g><g
           transform="translate(614.5311,470.6552)"
           id="g922"><path
             id="path924"
             style="fill:#d9e0c8;fill-opacity:1;fill-rule:nonzero;stroke:none"
             d="M 0,0 C -0.092,0.545 0.275,1.061 0.82,1.153 1.364,1.245 1.88,0.878 1.972,0.333 2.064,-0.212 1.697,-0.728 1.153,-0.82 0.608,-0.911 0.092,-0.545 0,0" /></g><g
           transform="translate(571.0168,437.0654)"
           id="g926"><path
             id="path928"
             style="fill:#d9e0c8;fill-opacity:1;fill-rule:nonzero;stroke:none"
             d="M 0,0 C -0.092,0.545 0.275,1.061 0.82,1.153 1.364,1.245 1.88,0.878 1.972,0.333 2.064,-0.212 1.697,-0.728 1.153,-0.82 0.608,-0.911 0.092,-0.545 0,0" /></g><g
           transform="translate(557.9955,462.3755)"
           id="g930"><path
             id="path932"
             style="fill:#d9e0c8;fill-opacity:1;fill-rule:nonzero;stroke:none"
             d="M 0,0 C -0.092,0.545 0.275,1.061 0.82,1.153 1.364,1.245 1.88,0.878 1.972,0.333 2.064,-0.212 1.697,-0.728 1.153,-0.82 0.608,-0.911 0.092,-0.545 0,0" /></g><g
           transform="translate(612.1199,445.1475)"
           id="g934"><path
             id="path936"
             style="fill:#d9e0c8;fill-opacity:1;fill-rule:nonzero;stroke:none"
             d="M 0,0 C -0.092,0.545 0.275,1.061 0.82,1.153 1.364,1.245 1.88,0.878 1.972,0.333 2.064,-0.212 1.697,-0.728 1.153,-0.82 0.608,-0.911 0.092,-0.545 0,0" /></g><g
           transform="translate(651.2189,410.2965)"
           id="g938"><path
             id="path940"
             style="fill:#d9e0c8;fill-opacity:1;fill-rule:nonzero;stroke:none"
             d="M 0,0 C -0.115,0.681 0.344,1.326 1.024,1.441 1.705,1.556 2.35,1.097 2.465,0.416 2.58,-0.264 2.121,-0.909 1.441,-1.024 0.76,-1.139 0.115,-0.681 0,0" /></g><g
           transform="translate(631.9435,438.8607)"
           id="g942"><path
             id="path944"
             style="fill:#d9e0c8;fill-opacity:1;fill-rule:nonzero;stroke:none"
             d="M 0,0 C -0.161,0.953 0.481,1.856 1.434,2.017 2.387,2.178 3.29,1.536 3.451,0.583 3.612,-0.37 2.97,-1.273 2.017,-1.434 1.064,-1.595 0.161,-0.953 0,0" /></g><g
           transform="translate(621.8076,402.7944)"
           id="g946"><path
             id="path948"
             style="fill:#d9e0c8;fill-opacity:1;fill-rule:nonzero;stroke:none"
             d="M 0,0 C -0.092,0.545 0.275,1.061 0.82,1.153 1.364,1.245 1.88,0.878 1.972,0.333 2.064,-0.212 1.697,-0.728 1.153,-0.82 0.608,-0.911 0.092,-0.545 0,0" /></g><g
           transform="translate(601.9978,421.7606)"
           id="g950"><path
             id="path952"
             style="fill:#d9e0c8;fill-opacity:1;fill-rule:nonzero;stroke:none"
             d="M 0,0 C -0.092,0.545 0.275,1.061 0.82,1.153 1.364,1.245 1.88,0.878 1.972,0.333 2.064,-0.212 1.697,-0.728 1.153,-0.82 0.608,-0.911 0.092,-0.545 0,0" /></g><g
           transform="translate(668.6555,453.4271)"
           id="g954"><path
             id="path956"
             style="fill:#d9e0c8;fill-opacity:1;fill-rule:nonzero;stroke:none"
             d="M 0,0 C -0.092,0.545 0.275,1.061 0.82,1.153 1.364,1.245 1.88,0.878 1.972,0.333 2.064,-0.212 1.697,-0.728 1.153,-0.82 0.608,-0.911 0.092,-0.545 0,0" /></g><g
           transform="translate(625.1412,419.8374)"
           id="g958"><path
             id="path960"
             style="fill:#d9e0c8;fill-opacity:1;fill-rule:nonzero;stroke:none"
             d="M 0,0 C -0.092,0.545 0.275,1.061 0.82,1.153 1.364,1.245 1.88,0.878 1.972,0.333 2.064,-0.212 1.697,-0.728 1.153,-0.82 0.608,-0.911 0.092,-0.545 0,0" /></g><g
           transform="translate(612.1199,445.1475)"
           id="g962"><path
             id="path964"
             style="fill:#d9e0c8;fill-opacity:1;fill-rule:nonzero;stroke:none"
             d="M 0,0 C -0.092,0.545 0.275,1.061 0.82,1.153 1.364,1.245 1.88,0.878 1.972,0.333 2.064,-0.212 1.697,-0.728 1.153,-0.82 0.608,-0.911 0.092,-0.545 0,0" /></g><g
           transform="translate(666.2442,427.9195)"
           id="g966"><path
             id="path968"
             style="fill:#d9e0c8;fill-opacity:1;fill-rule:nonzero;stroke:none"
             d="M 0,0 C -0.092,0.545 0.275,1.061 0.82,1.153 1.364,1.245 1.88,0.878 1.972,0.333 2.064,-0.212 1.697,-0.728 1.153,-0.82 0.608,-0.911 0.092,-0.545 0,0" /></g><g
           transform="translate(705.3433,393.0685)"
           id="g970"><path
             id="path972"
             style="fill:#d9e0c8;fill-opacity:1;fill-rule:nonzero;stroke:none"
             d="M 0,0 C -0.115,0.681 0.344,1.326 1.024,1.441 1.705,1.556 2.35,1.097 2.465,0.416 2.58,-0.264 2.121,-0.909 1.441,-1.024 0.76,-1.139 0.115,-0.681 0,0" /></g><g
           transform="translate(686.0678,421.6327)"
           id="g974"><path
             id="path976"
             style="fill:#d9e0c8;fill-opacity:1;fill-rule:nonzero;stroke:none"
             d="M 0,0 C -0.161,0.953 0.481,1.856 1.434,2.017 2.387,2.178 3.29,1.536 3.451,0.583 3.612,-0.37 2.97,-1.273 2.017,-1.434 1.064,-1.595 0.161,-0.953 0,0" /></g><g
           transform="translate(675.9319,385.5663)"
           id="g978"><path
             id="path980"
             style="fill:#d9e0c8;fill-opacity:1;fill-rule:nonzero;stroke:none"
             d="M 0,0 C -0.092,0.545 0.275,1.061 0.82,1.153 1.364,1.245 1.88,0.878 1.972,0.333 2.064,-0.212 1.697,-0.728 1.153,-0.82 0.608,-0.911 0.092,-0.545 0,0" /></g><g
           transform="translate(656.1222,404.5325)"
           id="g982"><path
             id="path984"
             style="fill:#d9e0c8;fill-opacity:1;fill-rule:nonzero;stroke:none"
             d="M 0,0 C -0.092,0.545 0.275,1.061 0.82,1.153 1.364,1.245 1.88,0.878 1.972,0.333 2.064,-0.212 1.697,-0.728 1.153,-0.82 0.608,-0.911 0.092,-0.545 0,0" /></g><g
           transform="translate(722.7798,436.1991)"
           id="g986"><path
             id="path988"
             style="fill:#d9e0c8;fill-opacity:1;fill-rule:nonzero;stroke:none"
             d="M 0,0 C -0.092,0.545 0.275,1.061 0.82,1.153 1.364,1.245 1.88,0.878 1.972,0.333 2.064,-0.212 1.697,-0.728 1.153,-0.82 0.608,-0.911 0.092,-0.545 0,0" /></g><g
           transform="translate(679.2655,402.6094)"
           id="g990"><path
             id="path992"
             style="fill:#d9e0c8;fill-opacity:1;fill-rule:nonzero;stroke:none"
             d="M 0,0 C -0.092,0.545 0.275,1.061 0.82,1.153 1.364,1.245 1.88,0.878 1.972,0.333 2.064,-0.212 1.697,-0.728 1.153,-0.82 0.608,-0.911 0.092,-0.545 0,0" /></g><g
           transform="translate(666.2442,427.9195)"
           id="g994"><path
             id="path996"
             style="fill:#d9e0c8;fill-opacity:1;fill-rule:nonzero;stroke:none"
             d="M 0,0 C -0.092,0.545 0.275,1.061 0.82,1.153 1.364,1.245 1.88,0.878 1.972,0.333 2.064,-0.212 1.697,-0.728 1.153,-0.82 0.608,-0.911 0.092,-0.545 0,0" /></g><g
           transform="translate(720.3686,410.6915)"
           id="g998"><path
             id="path1000"
             style="fill:#d9e0c8;fill-opacity:1;fill-rule:nonzero;stroke:none"
             d="M 0,0 C -0.092,0.545 0.275,1.061 0.82,1.153 1.364,1.245 1.88,0.878 1.972,0.333 2.064,-0.212 1.697,-0.728 1.153,-0.82 0.608,-0.911 0.092,-0.545 0,0" /></g><g
           transform="translate(740.1922,404.4046)"
           id="g1002"><path
             id="path1004"
             style="fill:#d9e0c8;fill-opacity:1;fill-rule:nonzero;stroke:none"
             d="M 0,0 C -0.161,0.953 0.481,1.856 1.434,2.017 2.387,2.178 3.29,1.536 3.451,0.583 3.612,-0.37 2.97,-1.273 2.017,-1.434 1.064,-1.595 0.161,-0.953 0,0" /></g><g
           transform="translate(730.0562,368.3383)"
           id="g1006"><path
             id="path1008"
             style="fill:#d9e0c8;fill-opacity:1;fill-rule:nonzero;stroke:none"
             d="M 0,0 C -0.092,0.545 0.275,1.061 0.82,1.153 1.364,1.245 1.88,0.878 1.972,0.333 2.064,-0.212 1.697,-0.728 1.153,-0.82 0.608,-0.911 0.092,-0.545 0,0" /></g><g
           transform="translate(710.2465,387.3045)"
           id="g1010"><path
             id="path1012"
             style="fill:#d9e0c8;fill-opacity:1;fill-rule:nonzero;stroke:none"
             d="M 0,0 C -0.092,0.545 0.275,1.061 0.82,1.153 1.364,1.245 1.88,0.878 1.972,0.333 2.064,-0.212 1.697,-0.728 1.153,-0.82 0.608,-0.911 0.092,-0.545 0,0" /></g><g
           transform="translate(733.3899,385.3814)"
           id="g1014"><path
             id="path1016"
             style="fill:#d9e0c8;fill-opacity:1;fill-rule:nonzero;stroke:none"
             d="M 0,0 C -0.092,0.545 0.275,1.061 0.82,1.153 1.364,1.245 1.88,0.878 1.972,0.333 2.064,-0.212 1.697,-0.728 1.153,-0.82 0.608,-0.911 0.092,-0.545 0,0" /></g><g
           transform="translate(720.3686,410.6915)"
           id="g1018"><path
             id="path1020"
             style="fill:#d9e0c8;fill-opacity:1;fill-rule:nonzero;stroke:none"
             d="M 0,0 C -0.092,0.545 0.275,1.061 0.82,1.153 1.364,1.245 1.88,0.878 1.972,0.333 2.064,-0.212 1.697,-0.728 1.153,-0.82 0.608,-0.911 0.092,-0.545 0,0" /></g></g></g></g></svg>